<svg width="221" height="244" viewBox="0 0 221 244" fill="none" xmlns="http://www.w3.org/2000/svg" xmlns:xlink="http://www.w3.org/1999/xlink">
<g filter="url(#filter0_b_302_391)">
<rect x="5" width="173" height="204" rx="5" fill="#F4F2B1"/>
</g>
<path d="M25.9766 40.3574H27.2168C28.3691 40.3574 29.1667 40.1003 29.6094 39.5859C30.0586 39.0716 30.2832 38.1504 30.2832 36.8223C30.2832 35.5267 30.0553 34.6087 29.5996 34.0684C29.1439 33.528 28.3691 33.2578 27.2754 33.2578H25.9766V40.3574ZM21.3574 44V29.6152H26.9434C28.3626 29.6152 29.4173 29.6803 30.1074 29.8105C30.804 29.9342 31.4095 30.1426 31.9238 30.4355C32.9199 31.0215 33.6686 31.8451 34.1699 32.9062C34.6712 33.9674 34.9219 35.2728 34.9219 36.8223C34.9219 38.4499 34.6094 39.8203 33.9844 40.9336C33.3659 42.0404 32.4512 42.8639 31.2402 43.4043C30.7715 43.6191 30.1823 43.7721 29.4727 43.8633C28.7695 43.9544 27.64 44 26.084 44H21.3574ZM40.4883 37.4961H44.248C44.2025 36.8385 44.0202 36.347 43.7012 36.0215C43.3822 35.6895 42.9232 35.5234 42.3242 35.5234C41.7708 35.5234 41.3314 35.6992 41.0059 36.0508C40.6868 36.3958 40.5143 36.8776 40.4883 37.4961ZM44.0234 40.8555H48.0664C47.7734 42.0143 47.1289 42.8932 46.1328 43.4922C45.1432 44.0846 43.8346 44.3809 42.207 44.3809C40.3841 44.3809 38.9355 43.8763 37.8613 42.8672C36.7936 41.8516 36.2598 40.4876 36.2598 38.7754C36.2598 36.9915 36.8066 35.5853 37.9004 34.5566C38.9941 33.5215 40.4818 33.0039 42.3633 33.0039C44.2513 33.0039 45.7292 33.5671 46.7969 34.6934C47.8711 35.8132 48.4082 37.3691 48.4082 39.3613V39.6152L40.4883 39.625C40.5078 40.3021 40.6868 40.8262 41.0254 41.1973C41.3639 41.5618 41.8359 41.7441 42.4414 41.7441C42.8516 41.7441 43.1934 41.6693 43.4668 41.5195C43.7402 41.3633 43.9258 41.1419 44.0234 40.8555ZM52.5879 44L48.8867 33.3848H53.0859L54.9219 39.7617L56.7285 33.3848H60.7422L57.3047 44H52.5879ZM61.8652 32.3008V29.2637H66.123V32.3008H61.8652ZM61.8652 44V33.3848H66.123V44H61.8652ZM75.6055 39.8594H79.8242C79.7331 41.2591 79.1732 42.3626 78.1445 43.1699C77.1224 43.9772 75.7617 44.3809 74.0625 44.3809C72.181 44.3809 70.6934 43.8698 69.5996 42.8477C68.5059 41.8255 67.959 40.4355 67.959 38.6777C67.959 36.9199 68.4993 35.5365 69.5801 34.5273C70.6608 33.5117 72.1419 33.0039 74.0234 33.0039C75.7292 33.0039 77.1029 33.4043 78.1445 34.2051C79.1862 34.9993 79.7331 36.0703 79.7852 37.418H75.5664C75.5208 36.9167 75.3711 36.5456 75.1172 36.3047C74.8633 36.0638 74.4922 35.9434 74.0039 35.9434C73.3919 35.9434 72.9427 36.1647 72.6562 36.6074C72.3698 37.0436 72.2266 37.7337 72.2266 38.6777C72.2266 39.6348 72.3633 40.3346 72.6367 40.7773C72.9167 41.2201 73.3594 41.4414 73.9648 41.4414C74.4531 41.4414 74.834 41.3079 75.1074 41.041C75.3874 40.7741 75.5534 40.3802 75.6055 39.8594ZM85.2344 37.4961H88.9941C88.9486 36.8385 88.7663 36.347 88.4473 36.0215C88.1283 35.6895 87.6693 35.5234 87.0703 35.5234C86.5169 35.5234 86.0775 35.6992 85.752 36.0508C85.4329 36.3958 85.2604 36.8776 85.2344 37.4961ZM88.7695 40.8555H92.8125C92.5195 42.0143 91.875 42.8932 90.8789 43.4922C89.8893 44.0846 88.5807 44.3809 86.9531 44.3809C85.1302 44.3809 83.6816 43.8763 82.6074 42.8672C81.5397 41.8516 81.0059 40.4876 81.0059 38.7754C81.0059 36.9915 81.5527 35.5853 82.6465 34.5566C83.7402 33.5215 85.2279 33.0039 87.1094 33.0039C88.9974 33.0039 90.4753 33.5671 91.543 34.6934C92.6172 35.8132 93.1543 37.3691 93.1543 39.3613V39.6152L85.2344 39.625C85.2539 40.3021 85.4329 40.8262 85.7715 41.1973C86.11 41.5618 86.582 41.7441 87.1875 41.7441C87.5977 41.7441 87.9395 41.6693 88.2129 41.5195C88.4863 41.3633 88.6719 41.1419 88.7695 40.8555ZM94.3652 40.6602H98.4668C98.4668 41.1094 98.5807 41.4447 98.8086 41.666C99.043 41.8874 99.3913 41.998 99.8535 41.998C100.296 41.998 100.635 41.9232 100.869 41.7734C101.11 41.6237 101.23 41.4056 101.23 41.1191C101.23 40.6439 100.706 40.2923 99.6582 40.0645C99.5671 40.0449 99.4954 40.0286 99.4434 40.0156C97.4577 39.5924 96.1621 39.1367 95.5566 38.6484C94.9512 38.1602 94.6484 37.444 94.6484 36.5C94.6484 35.3607 95.0911 34.4948 95.9766 33.9023C96.8685 33.3034 98.1673 33.0039 99.873 33.0039C101.455 33.0039 102.679 33.2839 103.545 33.8438C104.417 34.4036 104.919 35.237 105.049 36.3438H101.25C101.217 36.0247 101.077 35.7708 100.83 35.582C100.589 35.3932 100.283 35.2988 99.9121 35.2988C99.541 35.2988 99.2578 35.3639 99.0625 35.4941C98.8672 35.6178 98.7695 35.8001 98.7695 36.041C98.7695 36.4642 99.248 36.7767 100.205 36.9785C100.459 37.0306 100.651 37.0697 100.781 37.0957C102.708 37.5384 103.962 38.0104 104.541 38.5117C105.12 39.0065 105.41 39.7357 105.41 40.6992C105.41 41.9167 104.935 42.8346 103.984 43.4531C103.04 44.0716 101.641 44.3809 99.7852 44.3809C98.0664 44.3809 96.7546 44.0716 95.8496 43.4531C94.9512 42.8346 94.4564 41.9036 94.3652 40.6602Z" fill="#1B1B1B"/>
<path d="M161 24.0003L125.39 37.3286C124.635 37.611 124.507 38.624 125.168 39.0852L165.955 67.5576C166.711 68.0851 166.411 69.2672 165.496 69.3712L57.1746 81.6673C56.1588 81.7826 55.9502 83.1678 56.887 83.5772L200.395 146.289C201.479 146.763 200.988 148.394 199.823 148.191L52.2497 122.447C51.0611 122.24 50.5902 123.925 51.7141 124.364L191.881 179.084C192.967 179.508 192.572 181.132 191.413 181.01L36.9297 164.786C35.7802 164.665 35.3763 166.266 36.4455 166.705L137.787 208.297C138.888 208.749 138.419 210.403 137.244 210.209L77.1165 200.271" stroke="white" stroke-opacity="0.69"/>
<rect x="32" y="49" width="167" height="153" fill="url(#pattern0)"/>
<defs>
<filter id="filter0_b_302_391" x="-146.4" y="-151.4" width="475.8" height="506.8" filterUnits="userSpaceOnUse" color-interpolation-filters="sRGB">
<feFlood flood-opacity="0" result="BackgroundImageFix"/>
<feGaussianBlur in="BackgroundImageFix" stdDeviation="75.7"/>
<feComposite in2="SourceAlpha" operator="in" result="effect1_backgroundBlur_302_391"/>
<feBlend mode="normal" in="SourceGraphic" in2="effect1_backgroundBlur_302_391" result="shape"/>
</filter>
<pattern id="pattern0" patternContentUnits="objectBoundingBox" width="1" height="1">
<use xlink:href="#image0_302_391" transform="matrix(0.00245098 0 0 0.00255848 0 -0.518458)"/>
</pattern>
</defs>
</svg>
