<svg width="23" height="21" viewBox="0 0 23 21" fill="none" xmlns="http://www.w3.org/2000/svg">
<path d="M5.74995 9.9661V11.3898H17.2499V9.9661C17.2499 8.83504 17.6123 7.75015 18.2576 6.94943C18.9028 6.14872 19.7783 5.69755 20.6919 5.69492C20.6907 5.32258 20.6637 4.95106 20.6114 4.58441C20.4339 3.4796 19.9958 2.46477 19.3524 1.66825C18.7091 0.871743 17.8893 0.329333 16.9969 0.109627C16.553 2.01545e-07 16.0194 0 14.9499 0H8.04995C6.98045 0 6.44685 2.01545e-07 6.00295 0.109627C5.11055 0.329333 4.29083 0.871743 3.64746 1.66825C3.00409 2.46477 2.56596 3.4796 2.3885 4.58441C2.33615 4.95106 2.30922 5.32258 2.308 5.69492C3.2216 5.69755 4.09705 6.14872 4.74231 6.94943C5.38757 7.75015 5.74995 8.83504 5.74995 9.9661Z" fill="#451E5D"/>
<path d="M18.9106 18.5085H4.0894C3.77742 18.5086 3.46644 18.4646 3.1625 18.3775V19.9322C3.1625 20.2154 3.07163 20.487 2.90988 20.6873C2.74813 20.8875 2.52875 21 2.3 21C2.07125 21 1.85187 20.8875 1.69012 20.6873C1.52837 20.487 1.4375 20.2154 1.4375 19.9322V17.2997C0.986362 16.8249 0.624098 16.2343 0.375865 15.5687C0.127631 14.9032 -0.000625128 14.1788 2.29089e-06 13.4457V9.96611C2.29089e-06 9.21092 0.242323 8.48666 0.673656 7.95265C1.10499 7.41865 1.69 7.11865 2.3 7.11865C2.91 7.11865 3.49501 7.41865 3.92635 7.95265C4.35768 8.48666 4.6 9.21092 4.6 9.96611V11.6746C4.6 11.9767 4.69693 12.2664 4.86946 12.48C5.042 12.6936 5.276 12.8136 5.52 12.8136H17.48C17.724 12.8136 17.958 12.6936 18.1305 12.48C18.3031 12.2664 18.4 11.9767 18.4 11.6746V9.96611C18.4 9.21092 18.6423 8.48666 19.0737 7.95265C19.505 7.41865 20.09 7.11865 20.7 7.11865C21.31 7.11865 21.895 7.41865 22.3263 7.95265C22.7577 8.48666 23 9.21092 23 9.96611V13.4457C23.0006 14.1788 22.8724 14.9032 22.6241 15.5687C22.3759 16.2343 22.0136 16.8249 21.5625 17.2997V19.9322C21.5625 20.2154 21.4716 20.487 21.3099 20.6873C21.1481 20.8875 20.9287 21 20.7 21C20.4712 21 20.2519 20.8875 20.0901 20.6873C19.9284 20.487 19.8375 20.2154 19.8375 19.9322V18.3775C19.5336 18.4646 19.2226 18.5086 18.9106 18.5085Z" fill="#451E5D"/>
</svg>
