<svg width="24" height="24" viewBox="0 0 24 24" fill="none" xmlns="http://www.w3.org/2000/svg">
<path d="M9.20389 0C7.98338 0 6.81286 0.561903 5.94982 1.5621C5.08679 2.56229 4.60195 3.91885 4.60195 5.33333C4.60195 6.74782 5.08679 8.10438 5.94982 9.10457C6.81286 10.1048 7.98338 10.6667 9.20389 10.6667C10.4244 10.6667 11.5949 10.1048 12.458 9.10457C13.321 8.10438 13.8058 6.74782 13.8058 5.33333C13.8058 3.91885 13.321 2.56229 12.458 1.5621C11.5949 0.561903 10.4244 0 9.20389 0ZM17.2573 10.6667C17.187 10.6651 17.1185 10.6924 17.0638 10.7436C17.0091 10.7948 16.9717 10.8667 16.9582 10.9467L16.7396 12.7067C16.3944 12.88 16.0608 13.0933 15.7617 13.3333L14.3351 12.6667C14.2085 12.6667 14.0589 12.6667 13.9784 12.84L12.8279 15.1467C12.7589 15.2933 12.7819 15.4667 12.897 15.5733L14.1165 16.6667C14.0706 17.1095 14.0706 17.5571 14.1165 18L12.897 19.0933C12.8453 19.1447 12.8102 19.215 12.7977 19.2926C12.7851 19.3702 12.7958 19.4504 12.8279 19.52L13.9784 21.8267C14.0474 22 14.197 22 14.3351 22L15.7617 21.3333C16.0608 21.5733 16.3829 21.8 16.7396 21.96L16.9582 23.72C16.9812 23.88 17.0962 24 17.2573 24H19.5583C19.6848 24 19.8114 23.88 19.8344 23.72L20.053 21.96C20.3981 21.7867 20.7088 21.5733 21.0194 21.3333L22.4345 22C22.584 22 22.7336 22 22.8141 21.8267L23.9646 19.52C23.9968 19.4504 24.0074 19.3702 23.9949 19.2926C23.9823 19.215 23.9473 19.1447 23.8956 19.0933L22.6646 18C22.6876 17.7733 22.7106 17.56 22.7106 17.3333C22.7106 17.1067 22.6991 16.8933 22.6646 16.6667L23.8841 15.5733C23.9358 15.5219 23.9708 15.4517 23.9834 15.3741C23.9959 15.2965 23.9853 15.2163 23.9531 15.1467L22.8026 12.84C22.7336 12.6667 22.584 12.6667 22.4345 12.6667L21.0194 13.3333C20.7088 13.0933 20.3981 12.8667 20.0415 12.7067L19.8229 10.9467C19.8156 10.8707 19.7848 10.8004 19.7361 10.7489C19.6874 10.6974 19.6242 10.6681 19.5583 10.6667H17.2573ZM9.20389 13.3333C4.11874 13.3333 0 15.72 0 18.6667V21.3333H11.1367C10.6232 20.0837 10.356 18.7174 10.3544 17.3333C10.3567 15.9937 10.6078 14.6704 11.0907 13.4533C10.4809 13.3733 9.84816 13.3333 9.20389 13.3333ZM18.4078 15.3333C19.3627 15.3333 20.1335 16.2267 20.1335 17.3333C20.1335 18.44 19.3627 19.3333 18.4078 19.3333C17.4414 19.3333 16.6821 18.44 16.6821 17.3333C16.6821 16.2267 17.4529 15.3333 18.4078 15.3333Z" fill="black" />
</svg>
