<svg width="20" height="19" viewBox="0 0 20 19" fill="none" xmlns="http://www.w3.org/2000/svg">
<path d="M18 17.1C18 18.1545 17.11 19 16 19C15.4696 19 14.9609 18.7998 14.5858 18.4435C14.2107 18.0872 14 17.6039 14 17.1C14 16.0455 14.89 15.2 16 15.2C16.5304 15.2 17.0391 15.4002 17.4142 15.7565C17.7893 16.1128 18 16.5961 18 17.1ZM6 15.2C4.89 15.2 4 16.0455 4 17.1C4 17.6039 4.21071 18.0872 4.58579 18.4435C4.96086 18.7998 5.46957 19 6 19C7.11 19 8 18.1545 8 17.1C8 16.0455 7.11 15.2 6 15.2ZM6.2 11.9985L6.17 12.1125C6.17 12.2455 6.28 12.35 6.42 12.35H18V14.25H6C5.46957 14.25 4.96086 14.0498 4.58579 13.6935C4.21071 13.3372 4 12.8539 4 12.35C4 12.0175 4.09 11.704 4.24 11.438L5.6 9.1105L2 1.9H0V0H3.27L4.21 1.9H19C19.55 1.9 20 2.3275 20 2.85C20 3.0115 19.95 3.173 19.88 3.325L16.3 9.4715C15.96 10.051 15.3 10.45 14.55 10.45H7.1L6.2 11.9985ZM7.5 8.55H9V6.65H6.56L7.5 8.55ZM10 6.65V8.55H13V6.65H10ZM13 5.7V3.8H10V5.7H13ZM16.11 6.65H14V8.55H15L16.11 6.65ZM17.78 3.8H14V5.7H16.67L17.78 3.8ZM5.14 3.8L6.08 5.7H9V3.8H5.14Z" fill="black"/>
</svg>
