<svg width="20" height="20" viewBox="0 0 20 20" fill="none" xmlns="http://www.w3.org/2000/svg">
<path d="M10.0002 16.8002C6.2402 16.8002 3.2002 13.7602 3.2002 10.0002C3.2002 6.2402 6.2402 3.2002 10.0002 3.2002C13.7602 3.2002 16.8002 6.2402 16.8002 10.0002C16.8002 13.7602 13.7602 16.8002 10.0002 16.8002ZM10.0002 4.0002C6.68019 4.0002 4.0002 6.6802 4.0002 10.0002C4.0002 13.3202 6.68019 16.0002 10.0002 16.0002C13.3202 16.0002 16.0002 13.3202 16.0002 10.0002C16.0002 6.6802 13.3202 4.0002 10.0002 4.0002Z" fill="#FFEA29"/>
<path d="M9.20021 12.9598L5.72021 9.47982L6.28021 8.91982L9.20021 11.8398L13.7202 7.31982L14.2802 7.87982L9.20021 12.9598Z" fill="#FFEA29"/>
</svg>
