<svg width="26" height="26" viewBox="0 0 26 26" fill="none" xmlns="http://www.w3.org/2000/svg">
<path fill-rule="evenodd" clip-rule="evenodd" d="M3.29351 2.48337C3.09009 2.41197 2.86663 2.42431 2.67231 2.51766C2.47798 2.61102 2.3287 2.77774 2.2573 2.98116C2.1859 3.18459 2.19824 3.40804 2.29159 3.60237C2.38494 3.79669 2.55167 3.94597 2.75509 4.01737L3.03784 4.11596C3.76151 4.37054 4.23709 4.53846 4.58701 4.71071C4.91526 4.87212 5.05934 5.00321 5.15467 5.14187C5.25217 5.28487 5.32801 5.48204 5.37134 5.87529C5.41467 6.28696 5.41684 6.82321 5.41684 7.62487V10.4437C5.41684 13.6309 5.48509 14.6817 6.42434 15.6719C7.36251 16.662 8.87267 16.662 11.8952 16.662H17.639C19.3301 16.662 20.1762 16.662 20.7731 16.1745C21.3711 15.687 21.5423 14.8594 21.8835 13.204L22.4252 10.577C22.8011 8.69196 22.9885 7.75054 22.5075 7.12546C22.0265 6.50037 20.3842 6.50037 18.5588 6.50037H7.03317C7.02856 6.23335 7.01302 5.96663 6.98659 5.70087C6.92809 5.16246 6.80242 4.67171 6.49692 4.22537C6.18926 3.77471 5.77976 3.48654 5.30201 3.25146C4.85567 3.03262 4.28801 2.83329 3.62067 2.59821L3.29351 2.48337ZM16.8103 9.16212C17.1353 9.47196 17.1483 9.98546 16.8384 10.3105L13.7433 13.5605C13.6675 13.6401 13.5762 13.7035 13.4751 13.7468C13.374 13.7902 13.2651 13.8125 13.1551 13.8125C13.0451 13.8125 12.9362 13.7902 12.8351 13.7468C12.734 13.7035 12.6427 13.6401 12.5668 13.5605L11.3286 12.2605C11.2519 12.1838 11.1912 12.0927 11.1503 11.9922C11.1093 11.8918 11.0889 11.7843 11.0902 11.6758C11.0915 11.5674 11.1144 11.4603 11.1578 11.3609C11.2011 11.2615 11.2638 11.1718 11.3424 11.097C11.4209 11.0222 11.5136 10.9639 11.615 10.9256C11.7164 10.8872 11.8245 10.8695 11.9329 10.8735C12.0412 10.8775 12.1477 10.9032 12.2459 10.949C12.3442 10.9949 12.4323 11.0599 12.5051 11.1403L13.1551 11.8228L15.6619 9.19029C15.8105 9.03434 16.0149 8.94377 16.2303 8.93849C16.4456 8.9332 16.6542 9.01364 16.8103 9.16212Z" fill="white"/>
<path d="M8.125 19.5C8.55598 19.5 8.9693 19.6712 9.27405 19.976C9.5788 20.2807 9.75 20.694 9.75 21.125C9.75 21.556 9.5788 21.9693 9.27405 22.274C8.9693 22.5788 8.55598 22.75 8.125 22.75C7.69402 22.75 7.2807 22.5788 6.97595 22.274C6.6712 21.9693 6.5 21.556 6.5 21.125C6.5 20.694 6.6712 20.2807 6.97595 19.976C7.2807 19.6712 7.69402 19.5 8.125 19.5ZM17.875 19.5C18.306 19.5 18.7193 19.6712 19.024 19.976C19.3288 20.2807 19.5 20.694 19.5 21.125C19.5 21.556 19.3288 21.9693 19.024 22.274C18.7193 22.5788 18.306 22.75 17.875 22.75C17.444 22.75 17.0307 22.5788 16.726 22.274C16.4212 21.9693 16.25 21.556 16.25 21.125C16.25 20.694 16.4212 20.2807 16.726 19.976C17.0307 19.6712 17.444 19.5 17.875 19.5Z" fill="white"/>
</svg>
