<svg width="25" height="24" viewBox="0 0 25 24" fill="none" xmlns="http://www.w3.org/2000/svg">
<path d="M24.4689 18.5466L18.7514 13.0581C17.6235 11.9754 15.9391 11.7645 14.5817 12.4066L9.37692 7.41021V4.49956L3.12727 0L0.00244123 2.99971L4.68968 8.99912H7.72174L12.9265 13.9955C12.2625 15.2985 12.4773 16.9155 13.6052 17.9982L19.3227 23.4868C20.0355 24.1711 21.1878 24.1711 21.8958 23.4868L24.4689 21.0167C25.1768 20.3324 25.1768 19.2262 24.4689 18.5466ZM16.1978 10.5458C17.5796 10.5458 18.8783 11.0614 19.8549 11.9988L20.8021 12.9081C21.5735 12.5847 22.3059 12.1348 22.9406 11.5254C24.752 9.78654 25.3672 7.33991 24.7911 5.11825C24.6837 4.69642 24.132 4.55112 23.8097 4.86046L20.1771 8.34762L16.8619 7.81799L16.3101 4.63549L19.9427 1.14833C20.265 0.838981 20.1087 0.309345 19.6644 0.201543C17.3501 -0.346841 14.8014 0.243726 12.9949 1.97793C11.6034 3.31374 10.9491 5.07607 10.9833 6.83371L14.9918 10.6818C15.3873 10.5927 15.7975 10.5458 16.1978 10.5458ZM11.1249 14.3892L8.35647 11.7317L0.915476 18.8794C-0.305159 20.0512 -0.305159 21.9494 0.915476 23.1212C2.13611 24.2929 4.11354 24.2929 5.33418 23.1212L11.369 17.328C10.9979 16.3953 10.8856 15.3782 11.1249 14.3892ZM3.12727 22.1228C2.48277 22.1228 1.95546 21.6166 1.95546 20.998C1.95546 20.3746 2.47789 19.8731 3.12727 19.8731C3.77665 19.8731 4.29908 20.3746 4.29908 20.998C4.29908 21.6166 3.77665 22.1228 3.12727 22.1228Z" fill="#451E5D"/>
</svg>
