<svg width="22" height="21" viewBox="0 0 22 21" fill="none" xmlns="http://www.w3.org/2000/svg">
<path d="M2.75 10.2269H11V11.47H2.75V10.2269ZM1.375 7.11914H8.25V8.36223H1.375V7.11914Z" fill="#24FF00"/>
<path d="M20.5694 10.6028L18.5069 6.25266C18.4539 6.14085 18.3658 6.04555 18.2535 5.9786C18.1412 5.91165 18.0096 5.876 17.875 5.87607H15.8125V4.63317C15.8125 4.46835 15.7401 4.31028 15.6112 4.19374C15.4823 4.07719 15.3074 4.01172 15.125 4.01172H4.12505V5.25462H14.4375V13.0575C14.1243 13.222 13.8501 13.4408 13.6309 13.7015C13.4116 13.9622 13.2517 14.2595 13.1602 14.5763H8.83992C8.67259 13.9905 8.27464 13.48 7.72067 13.1404C7.16669 12.8009 6.49473 12.6556 5.83073 12.7318C5.16674 12.8081 4.55629 13.1006 4.11383 13.5545C3.67136 14.0085 3.42725 14.5928 3.42725 15.1978C3.42725 15.8028 3.67136 16.3871 4.11383 16.8411C4.55629 17.295 5.16674 17.5875 5.83073 17.6638C6.49473 17.74 7.16669 17.5947 7.72067 17.2552C8.27464 16.9156 8.67259 16.4051 8.83992 15.8192H13.1602C13.3097 16.3526 13.6518 16.8256 14.1321 17.1635C14.6125 17.5014 15.2039 17.6849 15.8125 17.6849C16.4212 17.6849 17.0126 17.5014 17.493 17.1635C17.9733 16.8256 18.3154 16.3526 18.4649 15.8192H19.9375C20.1199 15.8192 20.2948 15.7538 20.4237 15.6372C20.5526 15.5207 20.625 15.3626 20.625 15.1978V10.8477C20.6251 10.7635 20.6061 10.6802 20.5694 10.6028ZM6.18755 16.4407C5.9156 16.4407 5.64976 16.3678 5.42364 16.2312C5.19752 16.0947 5.02128 15.9005 4.91721 15.6734C4.81314 15.4463 4.78591 15.1964 4.83897 14.9553C4.89202 14.7142 5.02298 14.4928 5.21528 14.3189C5.40757 14.1451 5.65257 14.0267 5.9193 13.9788C6.18602 13.9308 6.46249 13.9554 6.71374 14.0495C6.96498 14.1436 7.17973 14.3029 7.33082 14.5073C7.4819 14.7117 7.56255 14.952 7.56255 15.1978C7.56218 15.5273 7.4172 15.8433 7.15942 16.0763C6.90163 16.3093 6.55211 16.4404 6.18755 16.4407ZM15.8125 7.11896H17.4213L18.8953 10.2262H15.8125V7.11896ZM15.8125 16.4407C15.5406 16.4407 15.2748 16.3678 15.0486 16.2312C14.8225 16.0947 14.6463 15.9005 14.5422 15.6734C14.4381 15.4463 14.4109 15.1964 14.464 14.9553C14.517 14.7142 14.648 14.4928 14.8403 14.3189C15.0326 14.1451 15.2776 14.0267 15.5443 13.9788C15.811 13.9308 16.0875 13.9554 16.3387 14.0495C16.59 14.1436 16.8047 14.3029 16.9558 14.5073C17.1069 14.7117 17.1875 14.952 17.1875 15.1978C17.1872 15.5273 17.0422 15.8433 16.7844 16.0763C16.5266 16.3093 16.1771 16.4404 15.8125 16.4407ZM19.25 14.5763H18.4649C18.3135 14.044 17.9709 13.5722 17.4909 13.2348C17.0109 12.8974 16.4206 12.7135 15.8125 12.712V11.4691H19.25V14.5763Z" fill="#24FF00"/>
</svg>
