<svg width="30" height="19" viewBox="0 0 30 19" fill="none" xmlns="http://www.w3.org/2000/svg">
<path d="M30 16.5526V2.41823C30 1.11473 28.8183 0.0625 27.3545 0.0625H2.6455C1.18166 0.0625 0 1.11473 0 2.41823V16.5526C0 17.8561 1.18166 18.9083 2.6455 18.9083H27.3545C28.8183 18.9083 30 17.8561 30 16.5526ZM27.6896 2.24548C28.2716 2.76374 27.9541 3.2977 27.6367 3.56468L20.4762 9.40689L27.3545 15.7831C27.5661 16.0029 27.7072 16.3484 27.4603 16.584C27.231 16.8353 26.7019 16.8196 26.4727 16.6625L18.7654 10.8046L14.9912 13.8671L11.2346 10.8046L3.52734 16.6625C3.29806 16.8196 2.76896 16.8353 2.53968 16.584C2.29277 16.3484 2.43386 16.0029 2.6455 15.7831L9.52381 9.40689L2.36332 3.56468C2.04586 3.2977 1.72839 2.76374 2.31041 2.24548C2.89242 1.72722 3.49206 1.97849 3.98589 2.35541L14.9912 10.2707L26.0141 2.35541C26.5079 1.97849 27.1076 1.72722 27.6896 2.24548Z" fill="#527AE2"/>
</svg>
