<svg width="84" height="81" viewBox="0 0 84 81" fill="none" xmlns="http://www.w3.org/2000/svg">
<g filter="url(#filter0_d_1_909)">
<ellipse cx="42" cy="36.5" rx="29" ry="27.5" fill="white"/>
</g>
<path d="M36.7499 35.9661V37.3898H48.2499V35.9661C48.2499 34.835 48.6123 33.7502 49.2576 32.9494C49.9028 32.1487 50.7783 31.6976 51.6919 31.6949C51.6907 31.3226 51.6637 30.9511 51.6114 30.5844C51.4339 29.4796 50.9958 28.4648 50.3524 27.6683C49.7091 26.8717 48.8893 26.3293 47.9969 26.1096C47.553 26 47.0194 26 45.9499 26H39.0499C37.9804 26 37.4468 26 37.0029 26.1096C36.1106 26.3293 35.2908 26.8717 34.6475 27.6683C34.0041 28.4648 33.566 29.4796 33.3885 30.5844C33.3361 30.9511 33.3092 31.3226 33.308 31.6949C34.2216 31.6976 35.0971 32.1487 35.7423 32.9494C36.3876 33.7502 36.75 34.835 36.7499 35.9661Z" fill="#451E5D"/>
<path d="M49.9106 44.5085H35.0894C34.7774 44.5086 34.4664 44.4646 34.1625 44.3775V45.9322C34.1625 46.2154 34.0716 46.487 33.9099 46.6873C33.7481 46.8875 33.5288 47 33.3 47C33.0713 47 32.8519 46.8875 32.6901 46.6873C32.5284 46.487 32.4375 46.2154 32.4375 45.9322V43.2997C31.9864 42.8249 31.6241 42.2343 31.3759 41.5687C31.1276 40.9032 30.9994 40.1788 31 39.4457V35.9661C31 35.2109 31.2423 34.4867 31.6737 33.9527C32.105 33.4187 32.69 33.1187 33.3 33.1187C33.91 33.1187 34.495 33.4187 34.9263 33.9527C35.3577 34.4867 35.6 35.2109 35.6 35.9661V37.6746C35.6 37.9767 35.6969 38.2664 35.8695 38.48C36.042 38.6936 36.276 38.8136 36.52 38.8136H48.48C48.724 38.8136 48.958 38.6936 49.1305 38.48C49.3031 38.2664 49.4 37.9767 49.4 37.6746V35.9661C49.4 35.2109 49.6423 34.4867 50.0737 33.9527C50.505 33.4187 51.09 33.1187 51.7 33.1187C52.31 33.1187 52.895 33.4187 53.3263 33.9527C53.7577 34.4867 54 35.2109 54 35.9661V39.4457C54.0006 40.1788 53.8724 40.9032 53.6241 41.5687C53.3759 42.2343 53.0136 42.8249 52.5625 43.2997V45.9322C52.5625 46.2154 52.4716 46.487 52.3099 46.6873C52.1481 46.8875 51.9287 47 51.7 47C51.4712 47 51.2519 46.8875 51.0901 46.6873C50.9284 46.487 50.8375 46.2154 50.8375 45.9322V44.3775C50.5336 44.4646 50.2226 44.5086 49.9106 44.5085Z" fill="#451E5D"/>
<defs>
<filter id="filter0_d_1_909" x="0.4" y="0.4" width="83.2" height="80.2" filterUnits="userSpaceOnUse" color-interpolation-filters="sRGB">
<feFlood flood-opacity="0" result="BackgroundImageFix"/>
<feColorMatrix in="SourceAlpha" type="matrix" values="0 0 0 0 0 0 0 0 0 0 0 0 0 0 0 0 0 0 127 0" result="hardAlpha"/>
<feOffset dy="4"/>
<feGaussianBlur stdDeviation="6.3"/>
<feComposite in2="hardAlpha" operator="out"/>
<feColorMatrix type="matrix" values="0 0 0 0 0 0 0 0 0 0 0 0 0 0 0 0 0 0 0.25 0"/>
<feBlend mode="normal" in2="BackgroundImageFix" result="effect1_dropShadow_1_909"/>
<feBlend mode="normal" in="SourceGraphic" in2="effect1_dropShadow_1_909" result="shape"/>
</filter>
</defs>
</svg>
