<svg width="241" height="209" viewBox="0 0 241 209" fill="none" xmlns="http://www.w3.org/2000/svg">
<path d="M151.486 34.063L68.1353 122.983C65.7045 125.576 69.0043 129.495 71.9734 127.541L145.21 79.3392C148.235 77.3482 151.543 81.4284 148.97 83.9767L87.9648 144.393C85.3495 146.983 88.7974 151.098 91.8051 148.976L173.6 91.2765C176.511 89.223 179.937 93.0523 177.574 95.7181L99.6723 183.594C97.4184 186.136 100.461 189.876 103.409 188.186L223.136 119.558" stroke="black" stroke-opacity="0.06" stroke-width="2"/>
<path d="M128.862 82.9474C128.862 82.9474 130.131 82.3754 131.249 82.5903C132.368 82.8052 136.427 85.1299 136.427 85.1299L139.7 84.5942L141.643 92.7157L128.862 97.3651V82.9474Z" fill="#AE7461"/>
<path d="M119.448 85.7713C119.448 85.7713 122.374 85.4406 123.432 84.9809C124.49 84.5213 127.017 82.5471 127.544 82.5835C128.071 82.6199 129.992 82.9406 129.992 82.9406L129.216 84.9809C129.216 84.9809 133.046 87.0212 134.187 87.7719C135.328 88.5225 138.913 91.8855 139.083 92.7089C139.252 93.5323 138.962 94.4979 138.514 94.8187C138.066 95.1394 136.435 94.488 136.435 94.488C136.498 94.7415 136.497 95.004 136.432 95.257C136.367 95.5101 136.239 95.7476 136.059 95.9529C135.449 96.6705 134.025 96.4192 134.025 96.4192C134.025 96.4192 133.901 97.5997 133.249 97.8146C132.598 98.0296 131.129 97.3847 131.129 97.3847C131.129 97.3847 130.689 98.3768 130.158 98.4925C129.627 98.6083 128.117 97.8312 128.117 97.8312C128.117 97.8312 121.598 93.7175 120.133 93.1091C118.668 92.5006 118.216 92.4642 118.216 92.4642L119.448 85.7713Z" fill="#FFBE9D"/>
<path d="M131.121 97.4015C131.095 97.4015 131.076 97.3023 131.009 97.1502C130.915 96.9525 130.804 96.7612 130.677 96.5781C130.47 96.3276 130.302 96.054 130.176 95.7646C130.462 95.958 130.693 96.207 130.85 96.4921C130.982 96.6864 131.08 96.8971 131.14 97.1171C131.174 97.2924 131.144 97.4048 131.121 97.4015Z" fill="#EB996E"/>
<path d="M133.829 96.7068C133.525 96.3638 133.25 96.0025 133.004 95.6255C132.56 95.0302 132.082 94.6334 132.115 94.5938C132.555 94.8186 132.918 95.1415 133.17 95.5296C133.471 95.8824 133.695 96.2817 133.829 96.7068Z" fill="#EB996E"/>
<path d="M136.443 94.6407C136.386 94.6407 136.205 94.0355 135.753 93.3676C135.302 92.6996 134.786 92.2532 134.827 92.2168C135.272 92.5016 135.645 92.8639 135.922 93.2809C136.2 93.698 136.377 94.1609 136.443 94.6407Z" fill="#EB996E"/>
<path d="M134.533 90.1758C134.791 90.7954 134.825 91.4697 134.631 92.107C134.564 91.7887 134.539 91.4647 134.556 91.1414C134.509 90.8212 134.501 90.4974 134.533 90.1758Z" fill="#EB996E"/>
<path d="M125.051 86.9558C125.051 86.9558 126.068 84.0954 126.433 83.735C126.798 83.3745 130.199 82.5908 130.199 82.5908L131.257 84.9882L130.504 85.6893L128.873 85.5967C128.873 85.5967 127.86 87.9577 125.051 86.9558Z" fill="#AE7461"/>
<path d="M118.8 92.6162C118.8 92.6162 118.333 92.9304 118.8 93.681C119.267 94.4316 120.528 93.8959 120.935 93.681C120.935 93.681 120.325 94.9343 121.097 95.3344C121.624 95.574 122.22 95.6728 122.81 95.6188C122.81 95.6188 122.769 96.3694 123.869 96.8721C124.968 97.3747 125.254 96.8721 125.254 96.8721C125.254 96.8721 125.375 98.122 126.636 98.2311C127.898 98.3403 128.346 97.9567 128.346 97.9567L127.777 97.216C127.777 97.216 128.512 95.8932 127.943 95.3344C127.747 95.1619 127.511 95.028 127.251 94.9413C126.992 94.8547 126.714 94.8173 126.437 94.8318C126.437 94.8318 126.689 93.6711 125.962 93.347C125.8 93.2583 125.618 93.2011 125.429 93.1794C125.239 93.1577 125.046 93.1719 124.864 93.2211C124.681 93.2704 124.512 93.3534 124.369 93.4647C124.226 93.5759 124.112 93.7128 124.034 93.8662C124.034 93.8662 123.951 92.5931 122.905 92.6228C122.293 92.6291 121.709 92.8437 121.274 93.2214L118.8 92.6162Z" fill="#AE7461"/>
<path d="M124.031 93.8594C123.941 94.2025 123.776 94.5271 123.545 94.815C123.37 95.1299 123.128 95.4126 122.833 95.6484C122.964 95.3203 123.147 95.0098 123.375 94.7258C123.548 94.4122 123.768 94.1207 124.031 93.8594Z" fill="#6F4439"/>
<path d="M126.459 94.9873C126.361 95.35 126.172 95.6889 125.906 95.9793C125.693 96.3016 125.402 96.5792 125.055 96.7928C125.505 96.1815 125.973 95.5805 126.459 94.9906V94.9873Z" fill="#6F4439"/>
<path d="M101.225 108.486H95.045L93.4634 128.221H99.6619C100.716 125.215 103.352 109.554 103.352 109.554L101.225 108.486Z" fill="#263238"/>
<path d="M66.2294 108.486C66.2294 108.486 62.2715 116.631 62.6669 119.928C63.0623 123.225 65.2842 128.221 65.2842 128.221H95.8926C96.5391 125.973 97.042 123.694 97.3989 121.396C98.0617 117.322 99.8391 108.5 99.8391 108.5L66.2294 108.486Z" fill="#263238"/>
<path d="M106.674 29.8862C105.638 28.7387 104.362 27.6375 104.098 26.1925C103.853 24.8697 104.516 23.4147 103.838 22.2243C103.002 20.7395 100.607 20.4519 99.568 19.0729C99.0672 18.4116 98.9466 17.5584 98.4383 16.8871C97.5947 15.743 95.8549 15.3759 94.2959 15.452C92.7368 15.528 91.2531 15.9513 89.6978 15.9976C87.5664 16.0373 85.4086 15.3362 83.3412 15.7827C81.0591 16.2754 79.5754 17.9651 78.0276 19.5954L76.0092 21.477C75.6018 21.799 75.159 22.0848 74.6874 22.3301C73.8589 22.7501 72.925 23.0245 72.2019 23.5768C70.6542 24.7573 70.6467 27.1547 72.2019 28.3419C71.3743 28.5535 70.6458 28.9929 70.1238 29.5953C69.6018 30.1978 69.3139 30.9314 69.3023 31.6884C69.3023 32.5184 69.6789 33.312 69.8973 34.1155C70.1157 34.9191 70.2739 35.8086 69.8408 36.5527C69.4077 37.2967 68.2855 37.7696 67.4834 37.3298C67.6048 37.8731 67.8625 38.3858 68.2377 38.8308C68.6129 39.2758 69.0962 39.6419 69.6525 39.9024C69.1802 40.2854 68.5593 40.4959 67.9165 40.4911C69.4454 44.1285 74.0284 46.1821 78.423 46.3871C82.8177 46.5921 87.107 45.3024 91.2644 44.0326L103.251 41.827C104.302 41.6617 104.795 40.5704 104.829 39.6313C104.863 38.6922 104.648 37.71 105.077 36.8503C105.661 35.673 107.284 35.1043 107.894 33.9337C108.572 32.5911 107.706 31.0402 106.674 29.8862Z" fill="#263238"/>
<path d="M78.1519 38.2095C77.4214 35.8253 76.7021 33.4246 76.4498 30.9643C76.1975 28.504 76.4498 25.9644 77.5419 23.6893C77.7113 23.3587 79.116 21.0439 79.5378 21.1067C79.839 21.1464 78.9315 23.3057 79.0708 23.5438C80.4039 25.8123 80.6449 28.4809 80.2608 31.0139C79.8643 33.4716 79.1569 35.8828 78.1519 38.2029" fill="#263238"/>
<path d="M78.4265 28.7882C78.5583 22.5946 82.776 17.5021 89.8218 17.7931L90.4695 17.8527C93.6227 18.1412 96.5363 19.4622 98.63 21.5526C100.724 23.6429 101.844 26.3492 101.767 29.1321C101.616 34.4991 101.39 40.4282 100.991 43.2786C100.197 49.1813 93.3541 49.4789 93.3541 49.4789L93.1696 59.2273L77.1499 49.4822L78.4265 28.7882Z" fill="#FFBE9D"/>
<path d="M93.3431 49.4798C90.2362 49.1842 87.2908 48.1136 84.855 46.3945C84.855 46.3945 86.4328 51.3878 93.2113 51.4771L93.3431 49.4798Z" fill="#EB996E"/>
<path d="M99.4247 33.7158C99.3999 33.936 99.2782 34.139 99.0855 34.2817C98.8928 34.4244 98.6443 34.4954 98.3929 34.4797C98.2696 34.4772 98.1481 34.4529 98.0357 34.4083C97.9233 34.3637 97.8222 34.2997 97.7386 34.2201C97.655 34.1405 97.5904 34.0469 97.5489 33.9449C97.5073 33.8429 97.4895 33.7346 97.4966 33.6265C97.5206 33.4063 97.6414 33.2029 97.8334 33.0597C98.0253 32.9164 98.2733 32.8445 98.5247 32.8593C98.6482 32.8627 98.7697 32.8877 98.8821 32.9327C98.9945 32.9778 99.0955 33.0421 99.1793 33.1218C99.2631 33.2015 99.3279 33.2951 99.3701 33.3971C99.4122 33.4991 99.4308 33.6074 99.4247 33.7158Z" fill="#263238"/>
<path d="M100.024 31.4545C99.892 31.5537 99.2217 31.0113 98.1861 30.9187C97.1505 30.8262 96.337 31.2098 96.2391 31.0874C96.1902 31.0345 96.3371 30.846 96.691 30.6641C97.1721 30.4352 97.7212 30.3406 98.2651 30.393C98.8037 30.4406 99.3106 30.6388 99.7112 30.9584C100.005 31.2098 100.088 31.4115 100.024 31.4545Z" fill="#263238"/>
<path d="M90.0744 33.7158C90.0505 33.9357 89.9296 34.1388 89.7375 34.2815C89.5454 34.4242 89.2973 34.4953 89.0464 34.4797C88.9229 34.4771 88.8012 34.4529 88.6886 34.4083C88.576 34.3638 88.4747 34.2998 88.3908 34.2203C88.3069 34.1407 88.242 34.0472 88.2 33.9452C88.158 33.8432 88.1397 33.7348 88.1463 33.6265C88.1703 33.4063 88.2911 33.2029 88.483 33.0597C88.675 32.9164 88.923 32.8445 89.1744 32.8593C89.2979 32.8627 89.4194 32.8877 89.5318 32.9327C89.6441 32.9778 89.7452 33.0421 89.829 33.1218C89.9128 33.2015 89.9776 33.2951 90.0198 33.3971C90.0619 33.4991 90.0805 33.6074 90.0744 33.7158Z" fill="#263238"/>
<path d="M89.8481 30.8787C89.7163 30.9779 89.0423 30.4389 88.0067 30.3463C86.9711 30.2537 86.1614 30.6373 86.0635 30.5149C86.0146 30.4587 86.1577 30.2735 86.5154 30.0916C86.9958 29.8611 87.5455 29.7664 88.0895 29.8205C88.6272 29.8685 89.1336 30.0654 89.5356 30.3826C89.8255 30.6307 89.9122 30.839 89.8481 30.8787Z" fill="#263238"/>
<path d="M92.7104 38.2063C92.7104 38.1533 93.3657 38.117 94.4201 38.0938C94.6875 38.0938 94.9436 38.074 95.0076 37.9186C95.0579 37.6808 95.0251 37.4353 94.9134 37.2142C94.7327 36.6278 94.5431 36.0149 94.3448 35.3756C93.5615 32.76 93.023 30.6205 93.1435 30.594C93.264 30.5675 93.9983 32.6641 94.7779 35.2797C94.9662 35.9235 95.1444 36.5385 95.3126 37.1249C95.4485 37.4193 95.4592 37.7468 95.3427 38.0475C95.2949 38.1261 95.2274 38.194 95.1451 38.2462C95.0629 38.2983 94.9682 38.3333 94.8683 38.3484C94.717 38.3661 94.5638 38.3661 94.4126 38.3484C93.3695 38.3154 92.7104 38.2592 92.7104 38.2063Z" fill="#263238"/>
<path d="M89.6 38.5542C89.7695 38.5542 89.6528 39.5463 90.5302 40.3333C91.4076 41.1203 92.6165 41.1269 92.6089 41.2658C92.6089 41.3287 92.3189 41.4312 91.8106 41.3981C91.1525 41.3437 90.5369 41.0886 90.0708 40.6772C89.6251 40.2799 89.3715 39.7468 89.3628 39.1892C89.3703 38.7725 89.5247 38.541 89.6 38.5542Z" fill="#263238"/>
<path d="M90.2324 27.1912C90.1006 27.4293 89.0838 27.2177 87.8524 27.2342C86.621 27.2507 85.5929 27.4491 85.4724 27.211C85.4159 27.0986 85.6117 26.8804 86.0373 26.682C86.6007 26.4379 87.2201 26.3096 87.8483 26.3067C88.4766 26.3038 89.0974 26.4265 89.6637 26.6654C90.0742 26.8638 90.2926 27.0788 90.2324 27.1912Z" fill="#263238"/>
<path d="M99.9596 28.3953C99.7525 28.5838 99.0634 28.3027 98.2085 28.2134C97.3537 28.1242 96.6118 28.2134 96.4687 27.9754C96.4085 27.8629 96.5478 27.6678 96.8867 27.5025C97.3405 27.3079 97.8497 27.2355 98.3502 27.2943C98.8507 27.3531 99.3203 27.5406 99.6998 27.8332C99.9784 28.0812 100.05 28.3027 99.9596 28.3953Z" fill="#263238"/>
<path d="M78.4495 33.2168C78.3403 33.1639 73.9682 31.5865 73.6293 35.6407C73.2904 39.6948 77.9976 39.1459 78.024 39.0434C78.0503 38.9409 78.4495 33.2168 78.4495 33.2168Z" fill="#FFBE9D"/>
<path d="M76.7321 37.4159C76.7321 37.3994 76.6493 37.4589 76.51 37.5052C76.3122 37.5635 76.0965 37.5528 75.9074 37.4754C75.4329 37.2902 75.079 36.5826 75.1166 35.8485C75.1344 35.5018 75.2399 35.1629 75.4254 34.8564C75.4796 34.7326 75.5672 34.6222 75.6807 34.5347C75.7942 34.4471 75.9301 34.3851 76.0769 34.3538C76.1708 34.3383 76.268 34.3523 76.3513 34.3934C76.4346 34.4346 76.4988 34.5001 76.5326 34.5787C76.5853 34.6944 76.5514 34.7738 76.574 34.7837C76.5966 34.7936 76.6794 34.7209 76.6568 34.5522C76.6392 34.4493 76.5821 34.3548 76.4949 34.2844C76.3743 34.1923 76.2177 34.1449 76.0581 34.1521C75.8656 34.1727 75.6824 34.2364 75.526 34.3372C75.3697 34.438 75.2456 34.5724 75.1656 34.7275C74.9409 35.0662 74.8118 35.4471 74.789 35.8386C74.7513 36.6586 75.1656 37.4556 75.8171 37.6672C75.9395 37.7079 76.071 37.7238 76.2014 37.7134C76.3319 37.7031 76.458 37.667 76.5702 37.6077C76.7171 37.5118 76.7472 37.4225 76.7321 37.4159Z" fill="#EB996E"/>
<path d="M99.2594 22.2441C100.035 21.9134 97.9451 19.6714 96.1639 18.8348C93.4676 17.5716 89.2762 16.6523 86.6703 17.145C83.5296 17.737 80.871 18.9406 79.1387 21.3149C77.4064 23.6892 76.6194 26.5297 76.5027 29.3471C76.465 30.2069 76.5027 31.1063 76.9696 31.8636C77.5495 32.7961 78.7471 33.431 78.6002 34.6645C78.5652 34.8869 78.5804 35.1133 78.645 35.3306C78.7096 35.5479 78.8223 35.7519 78.9768 35.931C79.7638 36.7676 80.8597 36.0831 81.3831 35.3688C82.5129 33.8344 82.7652 31.9463 82.9874 30.1308C83.1455 28.8412 83.3037 27.5218 82.9874 26.2553C82.8104 25.5675 82.494 24.9061 82.3622 24.2117C82.2713 23.8669 82.2666 23.5088 82.3486 23.1623C82.4305 22.8158 82.597 22.489 82.8367 22.2044C82.9576 22.0834 83.0912 21.9727 83.2359 21.8738C83.9166 21.4167 84.7235 21.1268 85.5738 21.0338C86.4242 20.9408 87.2874 21.0481 88.075 21.3447C90.6169 22.3003 94.9701 23.7586 96.1902 23.051C97.9413 22.0292 98.3932 21.3248 98.3932 21.3248L99.2594 22.2441Z" fill="#263238"/>
<path d="M86.9485 16.606C89.5431 16.0042 92.4315 16.2059 94.7286 17.4228C95.945 18.0842 97.0182 19.0531 97.3157 20.2766C97.6132 21.5001 96.9203 22.9419 95.5684 23.3387L95.4743 23.385C93.4596 23.8545 92.198 23.5503 90.2775 22.8426C88.6582 22.2474 87.2648 21.2686 85.6342 20.6767C83.8973 20.0496 81.9865 19.893 80.1475 20.227C82.0454 18.5603 84.3576 17.2079 86.9485 16.606Z" fill="#263238"/>
<path d="M88.1196 15.9016C88.2779 15.8995 88.4359 15.9139 88.5904 15.9446C89.0137 16.01 89.4296 16.1085 89.8331 16.2389C90.4336 16.4349 91.0051 16.6935 91.5352 17.0093C92.1907 17.3937 92.7642 17.8761 93.2298 18.4346C93.672 19.0084 93.9875 19.65 94.16 20.3261C94.3093 20.869 94.4051 21.4221 94.4462 21.9795C94.4838 22.4556 94.4838 22.8425 94.4801 23.1071C94.4855 23.2455 94.4741 23.3841 94.4462 23.5204C94.415 23.3844 94.4012 23.2458 94.4047 23.1071C94.3859 22.8425 94.3633 22.4457 94.3068 21.9894C94.2464 21.4397 94.1394 20.8948 93.9868 20.3591C93.8077 19.7051 93.4965 19.0846 93.0679 18.5272C92.6173 17.9836 92.0631 17.5127 91.4298 17.135C90.9159 16.8183 90.3625 16.5543 89.7803 16.348C89.2358 16.1744 88.6815 16.0254 88.1196 15.9016Z" fill="#8535B7"/>
<path d="M92.3716 15.667C92.5084 15.6854 92.6423 15.7176 92.7708 15.7629C92.9265 15.8042 93.0788 15.855 93.2264 15.915L93.8026 16.1696C94.8788 16.7509 95.7173 17.6169 96.1976 18.6431C96.3364 18.9327 96.4497 19.2312 96.5366 19.5359C96.6108 19.8211 96.6611 20.1107 96.6872 20.4023C96.7138 20.6651 96.7201 20.9291 96.706 21.1927C96.6871 21.4225 96.6519 21.6511 96.6006 21.8772C96.559 22.0638 96.5011 22.2473 96.4273 22.4261C96.3789 22.5617 96.3172 22.6934 96.2428 22.8196C96.1874 22.9373 96.1153 23.0484 96.0282 23.1503C96.2184 22.7364 96.3646 22.308 96.465 21.8705C96.5046 21.6515 96.531 21.4307 96.5441 21.2092C96.549 20.952 96.5377 20.6948 96.5102 20.4387C96.4777 20.1561 96.4249 19.8755 96.352 19.5988C96.2618 19.305 96.1498 19.0167 96.0169 18.7357C95.55 17.7407 94.7537 16.8916 93.731 16.2986L93.1775 16.0241C93.0359 15.9583 92.89 15.8998 92.7406 15.8489C92.6083 15.8041 92.484 15.7429 92.3716 15.667Z" fill="#8535B7"/>
<path d="M95.3842 58.2493C95.3842 58.8081 98.5587 71.0565 99.7751 74.0657C100.991 77.0749 104.84 107.246 104.332 109.396C103.823 111.545 102.509 111.459 102.509 111.459C102.509 111.459 71.4111 109.739 68.067 109.997C64.723 110.255 63.3071 110.169 62.4974 106.816C61.6878 103.463 62.52 86.0396 61.8121 81.8268C61.1041 77.6139 61.0966 75.5736 60.8217 69.3172C60.5844 63.8907 61.989 59.5423 64.9264 56.4008C67.8637 53.2593 74.3672 50.0881 74.3672 50.0881L76.6757 47.1318L92.9966 54.7143L93.3732 52.9882L94.3636 55.6733L95.3842 58.2493Z" fill="#8535B7"/>
<g opacity="0.3">
<path d="M102.4 95.5863C102.125 94.9779 101.244 94.8224 100.517 94.753C93.599 94.0916 86.4026 92.5606 81.3489 88.361C79.3756 86.7076 77.8166 84.7235 76.314 82.7394C73.0302 78.381 69.946 73.9102 66.8618 69.4395L64.4668 70.2298C65.9392 76.5392 67.3853 81.1058 69.7766 86.2777C72.1679 91.4495 74.0282 96.4692 80.0911 98.1623C84.0113 99.2569 91.4563 98.4169 95.5572 98.1359C97.2675 98.062 98.9641 97.8292 100.618 97.4414C101.126 97.3324 101.597 97.1219 101.997 96.8264C102.192 96.6752 102.334 96.4781 102.405 96.2582C102.477 96.0384 102.475 95.8052 102.4 95.5863Z" fill="black"/>
</g>
<path d="M63.612 68.5761C63.789 68.8572 77.6283 94.8156 83.808 95.8837C89.9877 96.9518 109.193 97.2064 112.94 96.5748C116.687 95.9432 120.355 95.3744 120.355 95.3744C120.355 95.3744 123.07 89.7132 120.592 84.8919L115.433 85.0341C115.433 85.0341 101.089 84.3529 99.0632 83.8668C97.0372 83.3807 95.2974 81.714 93.4635 81.8033L82.5427 59.5056C82.5427 59.5056 75.4517 53.722 70.3867 55.5011C65.3217 57.2801 62.1245 66.2614 63.612 68.5761Z" fill="#8535B7"/>
<path d="M115.832 96.2807C115.847 96.1323 115.881 95.9858 115.934 95.8442C116.017 95.5664 116.119 95.163 116.224 94.6637C116.329 94.1643 116.431 93.5625 116.499 92.8912C116.565 92.163 116.582 91.4321 116.552 90.7021C116.484 89.3761 116.249 88.0607 115.851 86.7802C115.697 86.2875 115.557 85.894 115.448 85.6229C115.387 85.4845 115.339 85.3418 115.305 85.1963C115.392 85.324 115.464 85.4591 115.52 85.5997C115.697 85.9738 115.851 86.3557 115.983 86.7439C116.422 88.0281 116.675 89.3557 116.736 90.6955C116.766 91.4323 116.744 92.1701 116.668 92.9044C116.602 93.5035 116.495 94.0987 116.348 94.6868C116.255 95.0835 116.137 95.4754 115.994 95.8607C115.954 96.0046 115.9 96.1451 115.832 96.2807Z" fill="#263238"/>
<path d="M82.5427 59.5117C82.5427 59.5117 82.6142 59.644 82.7498 59.9052L83.3298 61.0692L85.5553 65.5334C87.4608 69.4057 90.1986 74.9776 93.5426 81.7797L93.4673 81.74C94.328 81.7623 95.1654 81.991 95.8887 82.4014C96.6419 82.7651 97.3686 83.1884 98.167 83.5092C98.991 83.8182 99.8706 83.9973 100.765 84.0382C101.673 84.1341 102.599 84.2036 103.541 84.2763C107.307 84.5475 111.295 84.7657 115.448 84.9675L120.607 84.822H120.671L120.698 84.8716C121.482 86.5139 121.827 88.2922 121.707 90.0698C121.617 91.9027 121.19 93.7106 120.442 95.4236V95.4665H120.389L117.109 95.9989L113.516 96.5809C112.33 96.7695 111.129 96.8801 109.924 96.9116C107.536 97.0042 105.186 97.0141 102.874 97.0042C100.562 96.9943 98.295 96.9447 96.0732 96.8719C93.8514 96.7992 91.6823 96.7033 89.5622 96.5611C88.504 96.495 87.4608 96.4057 86.429 96.3065C85.4143 96.2201 84.4077 96.0721 83.4164 95.8634C82.9447 95.6989 82.5021 95.4762 82.1021 95.202C81.7048 94.9371 81.3275 94.6499 80.9724 94.3422C80.2904 93.7441 79.6503 93.1102 79.0556 92.4441C76.9272 89.9998 74.9848 87.4347 73.2412 84.7657C69.9988 79.8981 67.6565 75.8209 66.0485 73.0035C65.2502 71.5915 64.6439 70.4903 64.2372 69.7396C63.8304 68.989 63.6309 68.5922 63.6309 68.5922C63.6309 68.5922 63.6911 68.6881 63.7966 68.8799C63.902 69.0717 64.0677 69.3561 64.2748 69.7264L66.1163 72.9737C67.7469 75.7812 70.1043 79.8485 73.3617 84.7029C75.0994 87.359 77.0341 89.9119 79.1535 92.3449C79.7446 93.0055 80.3809 93.6338 81.059 94.2265C81.4041 94.5294 81.7714 94.8122 82.1586 95.073C82.5454 95.3397 82.9741 95.5557 83.4314 95.7146C84.417 95.9177 85.4173 96.0613 86.4252 96.1444C87.4495 96.2436 88.4927 96.3296 89.5508 96.3958C91.6635 96.5346 93.8363 96.6338 96.0544 96.7033C98.2724 96.7727 100.543 96.819 102.833 96.8289C105.122 96.8389 107.491 96.8289 109.871 96.733C111.067 96.7 112.259 96.5895 113.437 96.4024L117.026 95.8204L120.31 95.288L120.235 95.3409C120.974 93.6479 121.397 91.8614 121.489 90.05C121.599 88.2971 121.253 86.5452 120.476 84.9278L120.566 84.9774L115.407 85.1196C111.264 84.9112 107.265 84.693 103.496 84.4152C102.554 84.3425 101.613 84.2697 100.716 84.1738C100.257 84.1275 99.8051 84.0779 99.357 84.0019C98.9104 83.929 98.4772 83.8033 98.0691 83.6282C97.2557 83.2975 96.5251 82.871 95.7795 82.5105C95.082 82.1149 94.2746 81.8943 93.4447 81.8723H93.392L93.3694 81.8293C90.0517 75.014 87.3441 69.4354 85.4612 65.5599L83.2959 61.0858L82.7348 59.9151C82.6143 59.6473 82.5427 59.5117 82.5427 59.5117Z" fill="#263238"/>
<path d="M81.1081 57.7599C81.1081 57.7599 80.9161 57.6045 80.5696 57.3234C80.0824 56.9297 79.5527 56.5787 78.988 56.2751C78.1515 55.8242 77.2461 55.4801 76.2992 55.2533C73.9667 54.6796 71.4736 54.8993 69.3174 55.8684C68.4388 56.2532 67.6282 56.7478 66.911 57.3366C66.4239 57.7368 65.9836 58.1788 65.5968 58.656C65.4642 58.8356 65.3209 59.0089 65.1675 59.1752C65.1891 59.1226 65.2182 59.0726 65.2541 59.0264C65.3181 58.9338 65.3972 58.7883 65.5328 58.6164C65.9033 58.1257 66.3339 57.6722 66.8169 57.2639C68.4165 55.8924 70.4993 55.039 72.7239 54.8437C74.9484 54.6485 77.1824 55.1229 79.0595 56.1892C79.6265 56.504 80.1508 56.8746 80.6223 57.2936C80.7545 57.4048 80.8802 57.5218 80.9989 57.6442C81.0405 57.6787 81.0772 57.7176 81.1081 57.7599Z" fill="#263238"/>
<path d="M93.4221 81.8262C93.254 82.4714 93.0209 83.1021 92.7254 83.711C92.4905 84.3391 92.1958 84.9486 91.8442 85.5331C92.0121 84.8889 92.2452 84.2592 92.5409 83.6515C92.7754 83.0223 93.0702 82.4117 93.4221 81.8262Z" fill="#263238"/>
<path d="M118.495 86.1023C118.495 86.1023 118.548 86.0791 118.638 86.1023C118.76 86.1491 118.858 86.2339 118.913 86.3403C118.965 86.4188 118.992 86.5077 118.992 86.5983C118.992 86.6888 118.965 86.7778 118.913 86.8562C118.844 86.9503 118.747 87.0252 118.631 87.0721C118.516 87.1189 118.388 87.1358 118.262 87.1207C118.135 87.0974 118.02 87.0405 117.932 86.9576C117.843 86.8748 117.786 86.7701 117.768 86.6578C117.75 86.5694 117.757 86.4783 117.79 86.3932C117.823 86.3081 117.88 86.2318 117.957 86.1717C118.007 86.132 118.067 86.1021 118.132 86.0839C118.197 86.0657 118.265 86.0596 118.333 86.0659C118.423 86.0659 118.469 86.0923 118.465 86.1023C118.461 86.1122 118.246 86.1023 118.058 86.2577C118.009 86.308 117.974 86.3676 117.956 86.4319C117.937 86.4962 117.936 86.5634 117.953 86.628C117.968 86.7066 118.009 86.7797 118.07 86.8383C118.132 86.897 118.211 86.9388 118.299 86.9587C118.39 86.9674 118.482 86.9549 118.565 86.9224C118.648 86.8898 118.72 86.8385 118.774 86.7735C118.814 86.7178 118.838 86.6544 118.844 86.5887C118.849 86.5231 118.837 86.4571 118.808 86.3966C118.695 86.1585 118.487 86.1254 118.495 86.1023Z" fill="#263238"/>
<path d="M93.3881 55.5772C93.2572 55.5307 93.1312 55.4743 93.0115 55.4086L91.9797 54.8894L92.055 54.863C91.8516 55.7657 91.652 57.095 91.3018 58.6889L91.2755 58.7947L91.1738 58.7385C89.6675 57.8986 87.8373 56.9396 85.9017 55.9112C84.4556 55.1506 83.1037 54.3835 81.861 53.7221C80.6182 53.0607 79.4621 52.492 78.5019 52.0191L76.216 50.9014L75.5947 50.5972C75.5221 50.5619 75.4517 50.5233 75.3838 50.4814C75.4643 50.5012 75.5415 50.5301 75.6135 50.5674L76.2499 50.8452C76.8035 51.0899 77.5943 51.4503 78.5697 51.9133C79.545 52.3762 80.6936 52.9318 81.9589 53.5667L86.0109 55.7492C87.9503 56.7776 89.7767 57.7333 91.283 58.5963L91.155 58.6426C91.5127 57.062 91.7349 55.7293 91.9684 54.8299V54.7704L92.0286 54.8001L93.0341 55.3524C93.1589 55.4187 93.2773 55.4939 93.3881 55.5772Z" fill="#263238"/>
<g opacity="0.3">
<path d="M77.6885 51.5488L86.2067 57.1241C88.0896 58.3509 89.9989 59.5976 92.232 60.2226L92.1002 55.0177L91.2303 58.6551L77.6885 51.5488Z" fill="black"/>
</g>
<path d="M165.391 25.515C164.64 25.6038 163.879 25.4447 163.254 25.0684C162.63 24.6922 162.187 24.1256 162.011 23.4787C161.836 22.8318 161.94 22.1507 162.305 21.5676C162.669 20.9845 163.267 20.5411 163.982 20.3233C163.508 19.9113 163.194 19.379 163.084 18.8016C162.974 18.2242 163.073 17.6309 163.368 17.1058C163.663 16.5807 164.138 16.1503 164.727 15.8755C165.315 15.6007 165.988 15.4955 166.648 15.5747C166.663 14.9977 166.847 14.4337 167.184 13.9381C167.521 13.4424 167.998 13.0319 168.569 12.7466C169.141 12.4614 169.787 12.3113 170.444 12.3108C171.101 12.3104 171.748 12.4597 172.32 12.7441C173.049 12.2006 173.964 11.8874 174.92 11.8545C175.876 11.8215 176.816 12.0707 177.592 12.5622C178.23 12.4472 178.893 12.5153 179.483 12.7562C180.074 12.9972 180.561 13.3984 180.872 13.9006C181.183 14.4029 181.303 14.9797 181.212 15.546C181.122 16.1124 180.827 16.6383 180.371 17.0462" fill="#263238"/>
<path d="M164.965 25.8989C165.161 23.0453 166.573 20.3611 168.921 18.3802C171.268 16.3993 174.378 15.2668 177.633 15.208H178.303C185.545 15.4494 189.356 20.985 188.882 27.3307L189.311 49.9823L171.717 55.5179L171.563 47.36C171.563 47.36 164.588 46.5366 164.362 40.4157C164.261 37.4925 164.588 31.4014 164.965 25.8989Z" fill="#AE7461"/>
<path d="M171.506 47.3529C174.729 47.2944 177.866 46.4257 180.544 44.8496C180.544 44.8496 178.503 49.2807 171.555 48.8541L171.506 47.3529Z" fill="#6F4439"/>
<path d="M166.919 31.4175C166.922 31.6445 167.026 31.8616 167.208 32.0227C167.39 32.1838 167.636 32.2763 167.895 32.2806C168.022 32.2873 168.149 32.2716 168.268 32.2344C168.388 32.1971 168.498 32.1392 168.592 32.0639C168.686 31.9887 168.761 31.8977 168.814 31.7963C168.867 31.6949 168.896 31.5852 168.9 31.4738C168.897 31.2468 168.794 31.0297 168.612 30.8686C168.43 30.7075 168.183 30.615 167.925 30.6107C167.798 30.6045 167.671 30.6205 167.552 30.6579C167.432 30.6953 167.323 30.7533 167.229 30.8284C167.135 30.9036 167.06 30.9944 167.006 31.0956C166.953 31.1967 166.924 31.3062 166.919 31.4175Z" fill="#263238"/>
<path d="M166.52 28.8583C166.644 28.9708 167.386 28.4681 168.452 28.4516C169.517 28.4351 170.316 28.8881 170.429 28.7823C170.481 28.7294 170.353 28.5276 170.007 28.316C169.538 28.0425 168.984 27.9027 168.422 27.9159C167.866 27.9253 167.329 28.0885 166.885 28.3821C166.573 28.6004 166.467 28.8087 166.52 28.8583Z" fill="#263238"/>
<path d="M176.65 31.4174C176.653 31.6446 176.757 31.8618 176.94 32.0225C177.123 32.1831 177.37 32.2746 177.629 32.2771C177.755 32.2838 177.882 32.2682 178.002 32.2312C178.121 32.1942 178.231 32.1365 178.325 32.0616C178.419 31.9867 178.494 31.8961 178.547 31.7951C178.601 31.6941 178.63 31.5848 178.634 31.4736C178.631 31.2463 178.526 31.0292 178.344 30.8682C178.161 30.7072 177.914 30.6148 177.655 30.6105C177.529 30.6047 177.402 30.6211 177.283 30.6587C177.164 30.6962 177.054 30.7542 176.96 30.8293C176.867 30.9043 176.791 30.995 176.738 31.096C176.685 31.1969 176.655 31.3062 176.65 31.4174Z" fill="#263238"/>
<path d="M177.034 28.8445C177.159 28.9569 177.9 28.4543 178.966 28.4377C180.032 28.4212 180.849 28.8742 180.943 28.7684C181 28.7155 180.868 28.5138 180.521 28.3022C180.056 28.0302 179.506 27.8905 178.947 27.902C178.392 27.9114 177.854 28.0746 177.411 28.3683C177.064 28.5865 176.97 28.7949 177.034 28.8445Z" fill="#263238"/>
<path d="M173.317 35.8689C173.317 35.816 172.655 35.7267 171.578 35.6275C171.303 35.6077 171.043 35.5647 170.994 35.4026C170.966 35.1553 171.024 34.9064 171.16 34.6884C171.404 34.1031 171.657 33.4913 171.913 32.8498C172.975 30.2341 173.735 28.0847 173.615 28.0483C173.494 28.0119 172.538 30.1018 171.476 32.7175C171.225 33.3612 170.981 33.9774 170.745 34.566C170.581 34.8583 170.54 35.192 170.629 35.5085C170.671 35.5901 170.735 35.6622 170.813 35.7194C170.892 35.7767 170.985 35.8176 171.084 35.8391C171.236 35.8721 171.391 35.8877 171.547 35.8854C172.643 35.9317 173.298 35.9251 173.317 35.8689Z" fill="#263238"/>
<path d="M176.635 25.6569C176.782 25.8917 177.689 25.6172 178.815 25.5676C179.941 25.518 180.894 25.6602 180.992 25.4122C181.033 25.2932 180.83 25.0815 180.42 24.8996C179.89 24.6796 179.305 24.5829 178.721 24.6186C178.142 24.6458 177.582 24.8079 177.098 25.0881C176.729 25.313 176.571 25.5445 176.635 25.6569Z" fill="#263238"/>
<path d="M166.324 25.5384C166.554 25.75 167.428 25.5119 168.489 25.4822C169.551 25.4524 170.451 25.5913 170.651 25.3631C170.741 25.254 170.595 25.0324 170.195 24.8506C169.647 24.6157 169.041 24.5054 168.432 24.5297C167.822 24.5539 167.23 24.712 166.708 24.9895C166.339 25.2176 166.222 25.4392 166.324 25.5384Z" fill="#263238"/>
<path d="M165.571 23.0877C165.571 23.0877 167.314 19.232 169.393 18.3028C171.909 17.1785 173.057 19.6057 175.467 18.9641C177.878 18.3226 180.276 17.2479 182.788 18.8484C185.541 20.5977 184.294 21.884 184.528 24.589C185.462 35.5577 187.819 38.6198 188.346 33.438C188.407 32.8692 190.188 32.3864 190.395 29.989C190.67 26.8773 190.715 23.1076 189.875 20.9185C189.167 19.0733 187.932 17.8101 185.733 16.4344C182.268 14.2652 177.58 14.3016 174.405 14.6388C171.231 14.9761 165.168 18.3127 165.571 23.0877Z" fill="#263238"/>
<path d="M187.902 33.2832C187.905 33.0589 187.959 32.8373 188.062 32.6321C188.166 32.4268 188.315 32.2422 188.502 32.0893C188.689 31.9365 188.91 31.8187 189.151 31.7431C189.391 31.6675 189.647 31.6357 189.902 31.6497C191.201 31.7356 192.658 32.354 192.628 34.7085C192.572 38.8849 187.808 37.9756 187.8 37.8565C187.793 37.7375 187.861 35.0292 187.902 33.2832Z" fill="#AE7461"/>
<path d="M188.859 36.2946C188.859 36.2946 188.942 36.3442 189.081 36.4037C189.279 36.474 189.501 36.474 189.699 36.4037C190.203 36.2483 190.636 35.5506 190.666 34.8C190.685 34.4416 190.61 34.0843 190.448 33.755C190.406 33.624 190.328 33.504 190.221 33.4055C190.114 33.307 189.981 33.2328 189.834 33.1895C189.739 33.1668 189.638 33.1738 189.548 33.2094C189.458 33.245 189.385 33.3069 189.341 33.3846C189.277 33.5004 189.307 33.5864 189.281 33.593C189.254 33.5996 189.179 33.5202 189.22 33.3483C189.249 33.2456 189.317 33.1545 189.412 33.0903C189.477 33.0469 189.551 33.0154 189.63 32.9977C189.709 32.9801 189.791 32.9767 189.872 32.9878C190.067 33.0242 190.248 33.1041 190.398 33.22C190.548 33.3358 190.661 33.4837 190.727 33.6492C190.924 34.0132 191.017 34.4138 190.998 34.8165C190.956 35.6564 190.456 36.4401 189.766 36.6088C189.639 36.639 189.505 36.644 189.375 36.6234C189.244 36.6028 189.121 36.5572 189.013 36.4897C188.866 36.3938 188.84 36.3012 188.859 36.2946Z" fill="#6F4439"/>
<path d="M187.608 25.2012C187.036 25.6265 186.351 25.9187 185.616 26.051C184.863 26.1304 184.016 25.77 183.873 25.1251C183.812 24.8341 183.873 24.4969 183.662 24.2753C183.451 24.0537 182.909 24.1066 182.532 24.1496C181.839 24.2104 181.142 24.0594 180.561 23.7221C179.979 23.3848 179.547 22.8818 179.339 22.2978C179 22.7674 178.175 22.7608 177.637 22.4698C177.098 22.1788 176.74 21.6894 176.315 21.276C175.889 20.8627 175.29 20.4989 174.665 20.5882C174.315 20.6378 173.991 20.8296 173.637 20.8065C173.012 20.7701 172.692 20.1451 172.587 19.5929C172.481 19.0406 172.391 18.4156 171.856 18.1313C171.321 17.8469 170.726 18.0354 170.154 18.1313C169.582 18.2272 168.836 18.1114 168.678 17.622C168.65 17.4902 168.653 17.3549 168.687 17.2241C168.721 17.0934 168.784 16.97 168.874 16.8615C169.247 16.3493 169.807 15.9631 170.462 15.7656C171.116 15.5681 171.828 15.5709 172.481 15.7735C172.699 15.0746 173.148 14.4481 173.771 13.9731C174.394 13.4982 175.163 13.1961 175.982 13.1052C176.801 13.0142 177.632 13.1384 178.37 13.4621C179.108 13.7858 179.72 14.2944 180.13 14.9237C180.626 14.5134 181.227 14.2142 181.883 14.0514C182.538 13.8885 183.229 13.8669 183.896 13.9882C184.564 14.1096 185.188 14.3703 185.716 14.7485C186.244 15.1266 186.661 15.6109 186.931 16.1604C187.509 16.0157 188.124 16.0237 188.698 16.1832C189.271 16.3427 189.779 16.6469 190.157 17.0577C190.536 17.4686 190.768 17.9681 190.826 18.4941C190.884 19.0201 190.764 19.5494 190.482 20.0161C191.344 20.4295 192.093 21.1636 192.131 22.0267C192.169 22.8897 191.231 23.7661 190.275 23.5577C190.481 23.8947 190.532 24.2885 190.418 24.6577C190.303 25.0269 190.031 25.3432 189.658 25.5412C189.285 25.7391 188.839 25.8036 188.414 25.7212C187.988 25.6389 187.615 25.416 187.371 25.0987" fill="#263238"/>
<path d="M172.169 16.9902C172.163 17.0153 172.163 17.0412 172.169 17.0663C172.169 17.1159 172.169 17.1919 172.203 17.2878C172.277 17.57 172.404 17.8394 172.579 18.0848C172.849 18.4758 173.218 18.8072 173.656 19.0537C174.235 19.389 174.923 19.5482 175.615 19.5067L175.532 19.4141C175.397 19.7966 175.44 20.2105 175.652 20.5649C175.874 20.9368 176.157 21.2778 176.492 21.5768C176.653 21.7502 176.835 21.9077 177.034 22.0463C177.26 22.1771 177.518 22.2566 177.787 22.2778C178.066 22.3074 178.349 22.2767 178.612 22.1886C178.874 22.1004 179.108 21.9574 179.294 21.7719L179.117 21.7289C179.193 22.1616 179.371 22.5755 179.64 22.944C179.909 23.3124 180.263 23.6273 180.68 23.8684C181.137 24.1539 181.689 24.3013 182.25 24.2883C182.777 24.2557 183.294 24.1438 183.779 23.9577L183.651 23.9114C183.909 24.4118 184.307 24.8473 184.807 25.1779C185.036 25.3468 185.305 25.4684 185.594 25.5336C185.883 25.5989 186.186 25.6061 186.479 25.5548C186.976 25.4518 187.428 25.223 187.779 24.8968C188.129 24.5706 188.364 24.1614 188.452 23.7196L188.347 23.7659C188.852 23.9915 189.431 24.0558 189.985 23.9477C190.399 23.874 190.786 23.7141 191.115 23.4815C191.321 23.3359 191.496 23.1603 191.634 22.9623C191.683 22.8938 191.722 22.8205 191.751 22.7441C191.571 23.0056 191.339 23.2364 191.066 23.4253C190.742 23.6408 190.366 23.7858 189.966 23.8485C189.44 23.9408 188.894 23.872 188.418 23.6534L188.328 23.6104V23.6997C188.236 24.1129 188.009 24.4937 187.674 24.7955C187.34 25.0973 186.913 25.3071 186.445 25.3994C186.18 25.4436 185.908 25.4353 185.647 25.3752C185.387 25.3152 185.145 25.2048 184.939 25.0522C184.468 24.7371 184.095 24.3232 183.854 23.8485L183.817 23.7725L183.726 23.8022C183.261 23.9773 182.766 24.0813 182.261 24.1098C181.742 24.122 181.233 23.985 180.811 23.7196C180.42 23.492 180.087 23.1955 179.832 22.8488C179.578 22.5021 179.409 22.1129 179.335 21.7057L179.301 21.5073L179.154 21.6627C178.989 21.8272 178.781 21.954 178.547 22.0323C178.314 22.1106 178.062 22.1381 177.814 22.1125C177.575 22.0943 177.345 22.025 177.144 21.9108C176.956 21.7804 176.784 21.633 176.631 21.4709C176.306 21.1849 176.031 20.8584 175.814 20.5021C175.715 20.3453 175.652 20.1726 175.63 19.9943C175.608 19.8159 175.627 19.6355 175.686 19.4637L175.724 19.3612H175.603C174.942 19.4076 174.282 19.2649 173.72 18.9545C173.291 18.7222 172.926 18.4094 172.651 18.0385C172.422 17.7165 172.258 17.3617 172.169 16.9902Z" fill="#8535B7"/>
<path d="M177 36.193C176.831 36.2095 177.026 37.185 176.209 38.0415C175.392 38.898 174.176 38.9674 174.195 39.1063C174.195 39.1691 174.5 39.2551 175.004 39.1889C175.663 39.0945 176.263 38.7995 176.699 38.3556C177.111 37.9326 177.322 37.387 177.29 36.8312C177.249 36.4013 177.064 36.1698 177 36.193Z" fill="#263238"/>
<path d="M138.167 83.6812C138.77 83.4696 158.672 81.3665 158.672 81.3665L166.746 75.3613L165.993 92.7419L140.581 94.8913L138.167 83.6812Z" fill="#FFC727"/>
<path opacity="0.3" d="M163.176 78.0205C162.935 78.1263 160.939 79.6739 160.939 79.6739L161.549 93.0565L163.176 78.0205Z" fill="black"/>
<path d="M197.083 109.491H163.47C163.47 109.491 165.247 117.821 165.906 121.657C166.276 123.875 166.818 126.068 167.529 128.221H197.976C197.976 128.221 200.235 123.383 200.646 120.285C201.056 117.186 197.083 109.491 197.083 109.491Z" fill="#263238"/>
<path d="M160.965 110.496C160.965 110.496 160.024 119.99 160.965 128.221H172.609V120.638L160.965 110.496Z" fill="#263238"/>
<path d="M167.435 63.9465L171.058 57.0023L171.506 52.7034C171.506 52.7034 178.454 48.8675 181.749 47.4125C184.266 46.3609 186.852 45.439 189.491 44.6514V48.7121L167.435 63.9465Z" fill="#EBEBEB"/>
<path d="M197.712 99.5371C197.712 99.5371 199.682 76.3168 199.813 74.5906C199.813 74.5906 200.977 62.1835 198.469 57.4614C195.961 52.7393 190.346 48.5826 190.346 48.5826L189.827 46.1025L178.864 52.1738L173.796 56.0428C172.055 57.6766 170.456 59.4231 169.013 61.2675C167.574 63.0168 165.974 65.2654 165.247 68.0928C164.987 69.1278 161.971 81.4886 161.881 90.1028C161.881 90.1028 161.417 97.6225 160.92 101.878C160.31 107.149 159.376 119.163 159.58 126.279L195.14 125.327C203.922 124.15 202.378 123.382 202.378 123.382L197.712 99.5371Z" fill="#FFC727"/>
<path d="M189.491 48.7119L189.247 48.8111L188.52 49.0757C188.211 49.2079 187.834 49.3799 187.39 49.5816C186.946 49.7833 186.46 50.0512 185.937 50.3785C183.028 52.1795 180.403 54.3099 178.13 56.7144L178.111 56.7375H178.081L174.669 57.2898L174.745 57.2137C174.692 58.6059 174.635 60.0642 174.575 61.5754V61.6084L174.545 61.6349C172.732 63.1256 171.056 64.7399 169.533 66.4628C168.899 67.1853 168.325 67.9467 167.815 68.7412L167.627 69.0355L167.488 69.343C167.388 69.5458 167.301 69.7533 167.228 69.9647C167.077 70.388 166.927 70.8079 166.802 71.2312C166.279 72.9177 165.842 74.5645 165.436 76.1319C164.63 79.27 163.956 82.1073 163.394 84.4882C162.265 89.2566 161.651 92.2162 161.651 92.2162C161.667 92.0343 161.693 91.8533 161.73 91.6738C161.79 91.32 161.892 90.7975 162.027 90.1263C162.306 88.787 162.72 86.8525 163.259 84.465C163.797 82.0775 164.46 79.2403 165.262 76.0988C165.661 74.5281 166.095 72.8813 166.618 71.1882C166.742 70.7616 166.893 70.3384 167.047 69.9118C167.12 69.6959 167.207 69.484 167.307 69.2769L167.454 68.9462L167.642 68.6453C168.155 67.8371 168.735 67.0634 169.378 66.3305C170.914 64.61 172.603 62.999 174.428 61.5125L174.398 61.5721C174.458 60.0609 174.519 58.5959 174.575 57.2104V57.1476H174.647L178.058 56.6052L178.01 56.6317C180.298 54.2232 182.95 52.0994 185.891 50.319C186.419 49.9883 186.934 49.7602 187.364 49.5353C187.793 49.3104 188.192 49.1716 188.493 49.0459L189.228 48.7979L189.491 48.7119Z" fill="#263238"/>
<path d="M177.554 67.0616L177.983 98.043L172.609 128.221H186.773C186.773 128.221 193.212 105.308 194.711 100.493C196.164 95.8175 198.349 72.283 198.541 71.1289C198.616 70.6759 200.152 62.5313 195.63 58.7119" fill="#FFC727"/>
<path d="M195.63 58.7119C195.63 58.7119 195.735 58.7979 195.927 58.9698C196.209 59.2316 196.468 59.5113 196.703 59.8065C197.575 60.9604 198.175 62.2555 198.469 63.6159C198.943 65.7698 199.035 67.975 198.74 70.1534C198.526 71.4199 198.42 72.779 198.266 74.2241C198.112 75.6692 197.957 77.2002 197.791 78.7974C197.453 82.005 197.072 85.5201 196.613 89.2899C196.376 91.1715 196.131 93.1225 195.826 95.1264C195.563 97.195 195.147 99.2462 194.579 101.267C192.211 109.534 189.608 118.654 186.871 128.231V128.297H172.497V128.201C174.485 117.07 176.323 106.796 177.889 98.0265C177.776 88.6451 177.682 80.9005 177.614 75.4972C177.588 72.7989 177.565 70.6891 177.55 69.2441C177.55 68.5298 177.55 67.9809 177.55 67.5907C177.55 67.2005 177.55 67.0318 177.55 67.0318C177.55 67.0318 177.55 67.2203 177.573 67.5907C177.595 67.961 177.592 68.5166 177.607 69.2441C177.629 70.6858 177.667 72.7989 177.716 75.4972C177.795 80.9005 177.916 88.6451 178.059 98.0265C176.5 106.799 174.669 117.074 172.7 128.208L172.606 128.108H186.769L186.675 128.171L194.402 101.211C194.97 99.1966 195.388 97.152 195.652 95.09C195.958 93.0894 196.206 91.1384 196.447 89.2568C196.914 85.4904 197.302 81.9819 197.652 78.771C197.823 77.1661 197.985 75.6416 198.138 74.1977C198.3 72.7592 198.413 71.3836 198.627 70.1237C198.928 67.9556 198.849 65.7598 198.394 63.6126C198.109 62.2542 197.522 60.9585 196.665 59.7999C196.438 59.5032 196.186 59.2214 195.912 58.9566C195.724 58.8078 195.63 58.7119 195.63 58.7119Z" fill="#263238"/>
<path d="M185.048 101.092C184.673 101.032 184.306 100.939 183.952 100.814C183.285 100.616 182.378 100.312 181.395 99.9282C180.412 99.5446 179.546 99.1578 178.932 98.8568C178.589 98.7108 178.263 98.5347 177.96 98.3311C178.317 98.4479 178.663 98.5882 178.996 98.751C179.625 99.0222 180.502 99.3892 181.474 99.7728C182.446 100.156 183.357 100.474 184.001 100.702C184.36 100.81 184.71 100.94 185.048 101.092Z" fill="#263238"/>
<path d="M160.796 103.146C160.792 103.12 160.792 103.093 160.796 103.066C160.796 103 160.796 102.924 160.796 102.828C160.796 102.607 160.826 102.303 160.853 101.916C160.909 101.112 160.992 99.9713 161.094 98.5659C161.312 95.7386 161.621 91.8333 162.058 87.5278C162.494 83.2224 162.992 79.3237 163.402 76.5129C163.605 75.1075 163.779 73.97 163.91 73.1863C163.974 72.806 164.027 72.5051 164.065 72.2835C164.084 72.1909 164.099 72.1149 164.11 72.052C164.113 72.0247 164.12 71.9979 164.133 71.9727C164.133 71.9727 164.133 71.9991 164.133 72.052C164.133 72.1049 164.133 72.1942 164.106 72.2901C164.08 72.5117 164.038 72.8126 163.99 73.1962C163.88 73.9964 163.73 75.134 163.541 76.5294C163.165 79.3435 162.69 83.2356 162.253 87.5411C161.817 91.8465 161.5 95.7519 161.237 98.5759C161.109 99.9779 161.003 101.115 160.932 101.922C160.894 102.306 160.86 102.61 160.838 102.832C160.838 102.928 160.819 103.004 160.811 103.066C160.812 103.094 160.807 103.12 160.796 103.146Z" fill="#263238"/>
<path d="M189.492 54.8031C189.129 53.9485 188.683 53.1231 188.159 52.3362C187.576 51.5806 186.922 50.8694 186.204 50.21C186.471 50.3475 186.714 50.5191 186.923 50.7192C187.457 51.1772 187.927 51.6889 188.324 52.2436C188.722 52.7977 189.044 53.3916 189.281 54.0128C189.394 54.2658 189.466 54.5321 189.492 54.8031Z" fill="#263238"/>
<path d="M164.49 93.2981C164.528 93.3683 164.54 93.4468 164.524 93.523C164.5 93.7364 164.391 93.9355 164.216 94.0852C164.085 94.2006 163.92 94.2812 163.739 94.3175C163.559 94.3538 163.37 94.3443 163.195 94.2902C162.986 94.2275 162.803 94.1126 162.668 93.9595C162.525 93.792 162.45 93.5869 162.457 93.3775C162.457 93.1179 162.552 92.8651 162.728 92.6566C162.815 92.5574 162.929 92.4789 163.059 92.4285C163.195 92.3855 163.293 92.3623 163.406 92.3326H163.432C163.674 92.3257 163.913 92.3859 164.114 92.5045C164.265 92.6023 164.376 92.7403 164.43 92.898C164.488 93.0259 164.509 93.1647 164.49 93.3014C164.464 93.3014 164.445 93.1559 164.336 92.9311C164.276 92.7966 164.171 92.6814 164.035 92.6004C163.852 92.5073 163.643 92.4635 163.432 92.4747H163.459C163.357 92.5078 163.225 92.5409 163.131 92.574C163.031 92.6172 162.945 92.6807 162.879 92.7591C162.733 92.9402 162.654 93.156 162.653 93.3775C162.649 93.5438 162.706 93.7069 162.814 93.8434C162.922 93.98 163.076 94.0831 163.255 94.1381C163.401 94.1871 163.558 94.1998 163.711 94.1747C163.864 94.1496 164.006 94.0877 164.121 93.9959C164.286 93.8695 164.401 93.7004 164.449 93.5131C164.483 93.3775 164.472 93.3014 164.49 93.2981Z" fill="#263238"/>
<path d="M163.963 104.253C164 104.323 164.012 104.402 163.997 104.478C163.974 104.692 163.865 104.891 163.688 105.04C163.558 105.156 163.393 105.237 163.212 105.273C163.031 105.309 162.842 105.3 162.668 105.245C162.46 105.181 162.277 105.066 162.14 104.915C161.997 104.747 161.923 104.542 161.93 104.333C161.93 104.073 162.025 103.82 162.201 103.612C162.288 103.512 162.402 103.434 162.532 103.384C162.668 103.341 162.766 103.317 162.879 103.288H162.905C163.147 103.281 163.385 103.341 163.587 103.46C163.738 103.557 163.849 103.695 163.903 103.853C163.961 103.981 163.982 104.12 163.963 104.257C163.941 104.257 163.918 104.111 163.809 103.886C163.75 103.751 163.645 103.635 163.507 103.555C163.325 103.462 163.116 103.419 162.905 103.43H162.931C162.83 103.463 162.698 103.496 162.607 103.529C162.506 103.571 162.418 103.635 162.351 103.714C162.206 103.895 162.127 104.111 162.125 104.333C162.122 104.499 162.178 104.662 162.286 104.799C162.395 104.935 162.549 105.038 162.728 105.093C162.873 105.142 163.031 105.155 163.184 105.13C163.337 105.105 163.479 105.043 163.594 104.951C163.759 104.825 163.874 104.656 163.922 104.468C163.956 104.336 163.944 104.257 163.963 104.253Z" fill="#263238"/>
<path d="M194.037 56.8796C194.018 56.9094 193.551 56.6449 192.722 56.3671C192.233 56.2048 191.729 56.0797 191.216 55.9934C190.595 55.8921 189.965 55.8433 189.333 55.8479C188.7 55.8592 188.069 55.9234 187.45 56.0397C186.946 56.1395 186.452 56.2767 185.974 56.4498C185.157 56.7474 184.697 57.0218 184.675 56.9921C184.768 56.9121 184.873 56.8432 184.987 56.7871C185.107 56.7096 185.233 56.64 185.364 56.5787C185.539 56.4902 185.718 56.4097 185.902 56.3373C186.387 56.1447 186.891 55.993 187.409 55.8843C188.67 55.6177 189.984 55.6018 191.254 55.838C191.769 55.936 192.273 56.0755 192.76 56.2547C192.947 56.3216 193.129 56.3978 193.306 56.4828C193.445 56.5394 193.578 56.6058 193.705 56.6812C193.825 56.7341 193.937 56.8008 194.037 56.8796Z" fill="#263238"/>
<g opacity="0.3">
<path d="M163.01 85.8612C164.543 83.9003 165.108 82.0518 165.929 79.7833C167.145 76.4137 167.484 72.6076 169.397 69.4959C170.527 67.6639 171.845 65.7856 173.803 64.6084C175.761 63.4312 175.995 62.006 175.957 58.0676C177.324 58.0676 178.766 57.1549 178.936 56.9928C179.734 56.2038 180.309 55.2598 180.612 54.2383C179.655 55.1543 178.058 56.6688 178.058 56.6688C178.058 56.6688 174.598 57.2342 174.647 57.2144C174.564 58.7289 174.56 60.0616 174.473 61.5761C174.473 61.5761 167.834 67.7631 167.318 69.0064C166.802 70.2498 163.01 85.8612 163.01 85.8612Z" fill="black"/>
</g>
<g opacity="0.3">
<path d="M187.661 124.48C196.078 110.496 198.691 92.1069 198.205 74.5908C198.205 74.5908 195.791 95.8833 194.974 99.5373C194.157 103.191 187.661 124.48 187.661 124.48Z" fill="black"/>
</g>
<path d="M188.946 46.46C188.889 46.5099 188.826 46.5533 188.757 46.5889L188.196 46.9196L186.102 48.1233L179.207 52.0418L176.229 53.6952L175.28 54.3566C174.979 54.5509 174.694 54.7642 174.428 54.9948C173.905 55.4379 173.442 55.8678 173.024 56.258L172.948 56.3275L172.907 56.2415L171.823 54.0259C171.706 53.7779 171.612 53.5762 171.536 53.4208C171.498 53.3525 171.469 53.2803 171.45 53.2058C171.5 53.2685 171.542 53.3362 171.574 53.4075C171.657 53.5564 171.762 53.7382 171.894 53.9962L173.024 56.1786L172.907 56.1621C173.318 55.7653 173.777 55.3288 174.3 54.8791C174.567 54.64 174.854 54.419 175.159 54.2177L176.104 53.5564L179.079 51.8798L186.02 48.0142L188.136 46.8568L188.716 46.5526C188.789 46.5149 188.866 46.4839 188.946 46.46Z" fill="#263238"/>
<path d="M11.8702 32.0854C11.825 32.1085 10.2245 29.6681 8.29268 26.6391C6.36082 23.6101 4.83567 21.1366 4.88086 21.1134C4.92605 21.0903 6.52652 23.5274 8.45837 26.5597C10.3902 29.5921 11.9154 32.0623 11.8702 32.0854Z" fill="#263238"/>
<path d="M17.2775 21.5693C17.3303 21.5693 17.2549 23.4377 17.1081 25.7392C16.9612 28.0407 16.803 29.9025 16.7541 29.8992C16.7051 29.8959 16.7767 28.0308 16.9235 25.7293C17.0704 23.4278 17.2248 21.566 17.2775 21.5693Z" fill="#263238"/>
<path d="M8.00247 34.6708C7.98364 34.7138 6.17982 34.2178 3.9693 33.5597C1.75878 32.9017 -0.0186808 32.3395 0.000148224 32.2965C0.0189772 32.2536 1.81903 32.7496 4.02955 33.4043C6.24008 34.0591 8.01754 34.6278 8.00247 34.6708Z" fill="#263238"/>
<path d="M35.0636 39.3608C33.9843 37.1979 32.2635 35.3291 30.0808 33.9497C27.8981 32.5703 25.3336 31.7308 22.6552 31.519C19.9768 31.3072 17.2828 31.7307 14.8546 32.7455C12.4263 33.7602 10.3529 35.3289 8.85086 37.2877C7.34885 39.2465 6.47336 41.5235 6.31583 43.8808C6.1583 46.2382 6.72452 48.5895 7.95533 50.6891C9.18615 52.7887 11.0364 54.5595 13.3129 55.8167C15.5893 57.0739 18.2084 57.7712 20.8966 57.8359L22.4029 60.8848L34.4535 56.2553C34.4535 56.2553 33.674 54.5192 32.9472 52.9815C34.6922 51.1016 35.813 48.8355 36.1864 46.4325C36.5597 44.0294 36.1712 41.5825 35.0636 39.3608Z" fill="#FFC727"/>
<path d="M32.6685 56.9397C32.6685 56.9397 32.6308 56.8901 32.5705 56.7975C32.5103 56.7049 32.4124 56.5627 32.2956 56.3809C32.0546 56.0105 31.7044 55.4649 31.2638 54.7572C30.3939 53.3386 29.1625 51.2652 27.8181 48.6363C27.4792 47.975 27.1327 47.2872 26.7863 46.5597C26.613 46.1959 26.4398 45.8256 26.2591 45.4486C26.055 45.0677 25.9178 44.6619 25.8524 44.2449C25.8277 44.0199 25.8651 43.7931 25.9616 43.5835C26.0068 43.4766 26.0762 43.3787 26.1655 43.2957C26.2547 43.2128 26.3621 43.1465 26.4812 43.1008C26.6057 43.0657 26.7373 43.0543 26.8672 43.0674C26.9971 43.0805 27.1222 43.1178 27.2344 43.1768C27.4643 43.2931 27.6522 43.4638 27.7767 43.6695C27.8924 43.883 27.9502 44.1171 27.9456 44.3534C27.941 44.5898 27.8742 44.822 27.7503 45.0319C27.5119 45.4666 27.1249 45.825 26.6432 46.057C26.1517 46.2989 25.589 46.406 25.0276 46.3646C24.4536 46.319 23.9068 46.1283 23.4535 45.8156C22.9876 45.5054 22.6163 45.0987 22.3728 44.6318C22.2409 44.3973 22.1568 44.1444 22.1242 43.8845C22.0773 43.6152 22.1472 43.3402 22.32 43.114C22.4158 43.0035 22.5469 42.9206 22.6966 42.8759C22.846 42.8331 23.0049 42.8229 23.1598 42.8461C23.4696 42.89 23.7543 43.0225 23.9695 43.2231C24.1835 43.4187 24.3626 43.6417 24.5004 43.8845C24.6411 44.1218 24.7668 44.3658 24.877 44.6153C25.1179 45.1181 25.2715 45.6498 25.3327 46.1926C25.4027 46.7477 25.2945 47.309 25.0201 47.8129C24.8786 48.0606 24.6887 48.2844 24.459 48.4743C24.2263 48.6668 23.9469 48.8104 23.6418 48.8943C23.3355 48.9718 23.0122 48.9821 22.7004 48.924C22.3931 48.8621 22.1018 48.7499 21.8418 48.5933C21.3342 48.2912 20.8865 47.9181 20.5162 47.4889C20.3279 47.2839 20.1396 47.0689 19.9815 46.854C19.8037 46.6455 19.6462 46.4243 19.5108 46.1926C19.3723 45.9517 19.321 45.6794 19.3639 45.4122C19.3899 45.2779 19.4518 45.151 19.5446 45.0418C19.638 44.9347 19.7713 44.8598 19.9212 44.8302C20.0745 44.8064 20.2323 44.8249 20.3731 44.8831C20.5104 44.9346 20.6375 45.0049 20.7497 45.0914C20.9694 45.2576 21.1598 45.4515 21.3146 45.6668C21.9951 46.4787 22.3392 47.4704 22.2899 48.4776C22.2398 48.9518 22.0532 49.4069 21.7476 49.8003C21.4501 50.1929 21.0133 50.4882 20.5049 50.6403C20.0045 50.7698 19.4669 50.7297 18.9986 50.5278C18.5392 50.3461 18.1579 50.0402 17.9103 49.6548C17.7891 49.4678 17.7086 49.2626 17.673 49.0497C17.6336 48.8346 17.6788 48.6142 17.8011 48.4247C17.8678 48.3306 17.9693 48.2595 18.0886 48.2234C18.2079 48.1873 18.3378 48.1883 18.4563 48.2263C18.676 48.3013 18.8685 48.427 19.0137 48.59C19.2788 48.897 19.5025 49.2299 19.6802 49.5821L20.2451 50.5741C21.71 53.1567 22.851 55.2632 23.6117 56.7314C23.9883 57.4655 24.2745 58.0541 24.4628 58.4311C24.5532 58.6262 24.6247 58.7618 24.6737 58.8775L24.7414 59.0296L24.6624 58.8808C24.6134 58.7783 24.5381 58.6328 24.4439 58.4377C24.2481 58.0508 23.9582 57.4787 23.5703 56.7479C22.8171 55.283 21.6497 53.1832 20.1811 50.6072C19.9965 50.2765 19.8045 49.9458 19.6124 49.6151C19.4396 49.2621 19.2183 48.929 18.9534 48.6231C18.8171 48.4739 18.6376 48.3597 18.4337 48.2924C18.3328 48.2606 18.2226 48.26 18.1213 48.2907C18.0199 48.3213 17.9335 48.3814 17.8764 48.4611C17.7627 48.646 17.7254 48.8599 17.7709 49.0662C17.807 49.2697 17.8849 49.4658 18.0007 49.6449C18.2395 50.0156 18.6079 50.3089 19.0513 50.4815C19.4999 50.6747 20.0148 50.7124 20.4936 50.5873C20.9825 50.4421 21.4017 50.1568 21.6836 49.7772C21.9811 49.3923 22.1625 48.9474 22.2108 48.4842C22.258 47.51 21.9304 46.5502 21.2807 45.7594C21.1308 45.5507 20.9468 45.3624 20.7346 45.2006C20.6366 45.1147 20.5185 45.0486 20.3884 45.0069C20.2583 44.9652 20.1194 44.9489 19.9815 44.9592C19.8498 44.989 19.7319 45.054 19.6442 45.1452C19.5565 45.2365 19.5033 45.3494 19.4919 45.4684C19.4518 45.7167 19.5005 45.9697 19.6313 46.1926C19.7619 46.4245 19.9157 46.6458 20.0907 46.854C20.2601 47.0689 20.4371 47.2805 20.6254 47.4823C20.9878 47.8948 21.4225 48.2542 21.9133 48.547C22.1655 48.6907 22.4447 48.7937 22.738 48.8513C23.0324 48.9049 23.3372 48.8958 23.6268 48.8248C23.9151 48.7371 24.1802 48.599 24.4061 48.4188C24.6319 48.2386 24.8139 48.0202 24.941 47.7766C25.2059 47.2878 25.309 46.7436 25.2385 46.2058C25.1804 45.6732 25.0306 45.1514 24.7942 44.6583C24.595 44.1616 24.2923 43.7019 23.9017 43.3025C23.7016 43.1158 23.4368 42.9925 23.1485 42.9519C23.0109 42.9247 22.8673 42.932 22.7342 42.9729C22.601 43.0138 22.4836 43.0868 22.3954 43.1834C22.2378 43.3904 22.1746 43.6418 22.2184 43.8878C22.2517 44.1368 22.3318 44.3793 22.4556 44.6053C22.7004 45.0624 23.0704 45.4589 23.5326 45.7594C23.9666 46.0594 24.4893 46.2441 25.0389 46.2918C25.5804 46.3323 26.1233 46.2299 26.598 45.9975C27.0638 45.7731 27.4378 45.4262 27.6675 45.0055C27.7845 44.8074 27.848 44.5884 27.8533 44.3654C27.8585 44.1423 27.8052 43.9212 27.6976 43.7191C27.5801 43.5274 27.4041 43.3682 27.1892 43.2595C27.0882 43.2035 26.9744 43.168 26.8558 43.1554C26.7373 43.1428 26.6171 43.1535 26.5038 43.1867C26.2873 43.2718 26.1181 43.4288 26.0331 43.6232C25.9454 43.8174 25.9105 44.0269 25.9314 44.235C25.9953 44.644 26.1299 45.0421 26.3306 45.4155L26.8503 46.5299C27.1967 47.253 27.5382 47.9441 27.8746 48.6033C29.2114 51.2487 30.4316 53.3121 31.2902 54.7374C31.7232 55.4483 32.0659 55.994 32.3032 56.3676L32.5668 56.7909C32.6383 56.8868 32.6685 56.9397 32.6685 56.9397Z" fill="white"/>
<path d="M22.0864 56.9095C22.0256 56.9199 21.9638 56.9254 21.9019 56.926C21.7814 56.926 21.6006 56.9459 21.3709 56.9459C20.7199 56.9543 20.0691 56.92 19.424 56.8434C18.4653 56.7348 17.5223 56.5375 16.6109 56.2548C13.4292 55.2781 10.7552 53.3268 9.07932 50.7589C8.75473 50.2639 8.47155 49.7489 8.23201 49.2179C8.1454 49.0294 8.09268 48.8872 8.05126 48.7814C8.02962 48.7307 8.01201 48.6788 7.99854 48.626C8.02737 48.6741 8.05253 48.7238 8.07385 48.7748C8.11904 48.8707 8.17929 49.0195 8.27344 49.2047C8.52658 49.7279 8.81842 50.236 9.1471 50.7258C9.63426 51.4529 10.2032 52.1353 10.8455 52.7628C12.1775 54.0549 13.8003 55.0903 15.6114 55.8035C17.4225 56.5167 19.3823 56.8922 21.3671 56.9062C21.5968 56.9062 21.7776 56.9062 21.8981 56.9062L22.0864 56.9095Z" fill="#263238"/>
<path d="M7.43751 46.0898C7.53363 46.3017 7.59573 46.5243 7.62203 46.7512C7.68348 46.9741 7.71008 47.2032 7.70112 47.4324C7.605 47.2205 7.54289 46.9979 7.51659 46.771C7.45304 46.5485 7.42641 46.3191 7.43751 46.0898Z" fill="#263238"/>
<path d="M34.9391 42.7532C34.9225 42.7087 34.9086 42.6634 34.8977 42.6176C34.8751 42.5184 34.8412 42.3894 34.7998 42.2274C34.781 42.1414 34.7584 42.0455 34.732 41.943C34.7057 41.8405 34.6642 41.7314 34.6266 41.6123C34.5477 41.3369 34.4522 41.0654 34.3404 40.7989L34.1521 40.3392C34.0843 40.1805 33.9939 40.0085 33.9111 39.8531C33.7529 39.5224 33.5345 39.1752 33.3161 38.8115C32.3121 37.2557 30.9454 35.9035 29.3055 34.8433C28.9289 34.6119 28.5523 34.3771 28.1984 34.2018C28.0214 34.1092 27.8519 34.01 27.6824 33.934L27.1854 33.7124C26.8728 33.5636 26.5715 33.4677 26.3155 33.3817C26.1837 33.3354 26.0632 33.2858 25.9389 33.2494L25.6263 33.1569L25.1933 33.0246C25.1418 33.0128 25.0924 32.995 25.0464 32.9717C25.0989 32.9802 25.1505 32.9923 25.2008 33.0081L25.6376 33.1205L25.9539 33.2065C26.0707 33.2428 26.1912 33.2858 26.3305 33.3321C26.5904 33.428 26.8954 33.5206 27.2117 33.6628L27.7126 33.8777C27.8858 33.9538 28.0553 34.053 28.2398 34.1423C28.6289 34.3386 29.006 34.5527 29.3695 34.7838C31.0292 35.8425 32.4067 37.2055 33.4065 38.7784C33.624 39.1209 33.8213 39.473 33.9977 39.8333C34.0768 40.0019 34.1672 40.164 34.2349 40.3227L34.4195 40.7856C34.5259 41.0502 34.6164 41.3196 34.6906 41.5925C34.7245 41.7149 34.7621 41.824 34.7885 41.9232C34.8149 42.0224 34.8299 42.1216 34.845 42.2076C34.8776 42.3729 34.904 42.5052 34.9241 42.6044C34.9341 42.6535 34.9391 42.7033 34.9391 42.7532Z" fill="#263238"/>
<g opacity="0.2">
<path d="M16.4418 36.1689C15.9485 35.7523 15.1275 35.6299 14.2689 35.7225C13.0416 35.8694 11.9295 36.4349 11.1734 37.2966C8.91397 39.7965 8.05913 42.0881 8.48843 45.4114C8.63153 46.5358 9.27548 48.2421 10.3148 48.9993C10.5712 49.1945 10.8709 49.3409 11.195 49.4291C11.5191 49.5173 11.8606 49.5455 12.1977 49.5119C13.9488 49.3102 14.5212 47.508 14.3706 46.0563C14.2275 44.7038 13.7267 43.3116 14.22 42.0253C14.6304 40.9638 15.6435 40.1867 16.3477 39.2542C17.0519 38.3217 17.3607 36.9593 16.4418 36.1689Z" fill="white"/>
</g>
<g opacity="0.2">
<path d="M21.7211 33.59C20.8286 33.0113 19.3976 33.1799 18.7988 33.7619C18.5589 34.0092 18.3858 34.301 18.2925 34.6154C18.1993 34.9298 18.1883 35.2587 18.2603 35.5774C18.3631 35.9586 18.592 36.3047 18.9184 36.5719C19.2448 36.839 19.6539 37.0154 20.0943 37.0786C20.5374 37.1242 20.9857 37.0457 21.3751 36.8546C21.7646 36.6634 22.0754 36.3692 22.2634 36.0139C22.6174 35.2963 22.4366 34.0529 21.7211 33.59Z" fill="white"/>
</g>
<path d="M28.8423 65.7318C29.2211 65.7884 29.5887 65.8919 29.9344 66.0393C30.053 66.0952 30.1847 66.1263 30.3192 66.1303C30.4537 66.1343 30.5875 66.1111 30.7101 66.0625L33.1353 65.1266C33.269 65.0755 33.3864 64.9963 33.477 64.896C33.5677 64.7956 33.6288 64.6772 33.655 64.5513C33.7129 64.2087 33.9062 63.895 34.201 63.665L28.8423 65.7318Z" fill="#263238"/>
<path d="M23.25 60.8121C23.2726 60.8551 25.5095 63.9668 26.3493 65.1539C26.5181 65.3975 26.7537 65.6002 27.0345 65.7434C27.3154 65.8867 27.6326 65.9659 27.9572 65.974C28.2162 65.9779 28.4731 65.9328 28.7104 65.8417L34.0164 63.7948C34.0164 63.7948 35.4022 63.2624 35.2365 62.1745C35.0558 61.0303 33.685 56.791 33.685 56.791L23.25 60.8121Z" fill="#E0E0E0"/>
<path d="M35.1039 61.1169L25.8735 64.7087C25.729 64.765 25.6637 64.9134 25.7278 65.0403L25.7415 65.0675C25.8055 65.1944 25.9746 65.2517 26.1191 65.1955L35.3495 61.6037C35.494 61.5474 35.5593 61.399 35.4952 61.2721L35.4815 61.2449C35.4175 61.118 35.2484 61.0607 35.1039 61.1169Z" fill="#E0E0E0"/>
<path d="M35.3497 61.5989C35.414 61.5667 35.4643 61.5167 35.4928 61.4567C35.5078 61.4203 35.5129 61.3812 35.5077 61.3428C35.5025 61.3043 35.4871 61.2674 35.4627 61.2351C35.4365 61.1895 35.3939 61.1527 35.3414 61.1306C35.289 61.1085 35.2296 61.1022 35.1727 61.1128C34.6681 61.298 33.93 61.6022 33.0187 61.956L25.8975 64.7437C25.8613 64.7571 25.8295 64.7785 25.8051 64.8056C25.7808 64.8328 25.7646 64.8649 25.7582 64.8991C25.7489 64.9328 25.7489 64.9679 25.7582 65.0016C25.7716 65.0348 25.7907 65.066 25.8147 65.0942C25.8408 65.1201 25.8735 65.1402 25.9101 65.1529C25.9468 65.1655 25.9864 65.1703 26.0256 65.1669C26.1099 65.1446 26.1918 65.1158 26.2704 65.0809L27.2721 64.6907L29.155 63.9566L32.3634 62.7199L34.5325 61.8899L35.1238 61.6683L35.2781 61.6154C35.312 61.6154 35.3309 61.5956 35.3309 61.6154L35.2819 61.6386L35.1313 61.7014L34.5476 61.9395L32.3935 62.7926L29.1926 64.0459L27.3097 64.7866L26.308 65.1768L26.18 65.2264C26.1344 65.2457 26.0864 65.2601 26.0369 65.2694C25.9816 65.2746 25.9256 65.2679 25.8739 65.2501C25.8221 65.2323 25.776 65.2037 25.7394 65.1669C25.7056 65.1307 25.6801 65.0892 25.6641 65.0446C25.6491 64.9981 25.6491 64.9489 25.6641 64.9024C25.6725 64.8538 25.6949 64.808 25.7291 64.7692C25.7634 64.7304 25.8084 64.7 25.8599 64.6808L32.9923 61.9163C33.9074 61.5691 34.638 61.2781 35.1652 61.0963C35.2299 61.0856 35.2968 61.0941 35.3554 61.1205C35.414 61.1468 35.461 61.1895 35.489 61.2418C35.5135 61.2772 35.5283 61.3171 35.5322 61.3585C35.5362 61.3998 35.5291 61.4413 35.5116 61.4798C35.4956 61.5085 35.473 61.534 35.4451 61.5545C35.4172 61.575 35.3847 61.5901 35.3497 61.5989Z" fill="#263238"/>
<path d="M34.7717 59.9919L25.1523 63.7351C25.0078 63.7913 24.9425 63.9398 25.0066 64.0667L25.0203 64.0939C25.0843 64.2208 25.2534 64.2781 25.3979 64.2218L35.0174 60.4787C35.1619 60.4224 35.2271 60.274 35.1631 60.1471L35.1494 60.1199C35.0853 59.993 34.9162 59.9357 34.7717 59.9919Z" fill="#E0E0E0"/>
<path d="M35.0219 60.4744C35.0885 60.4415 35.1393 60.3887 35.165 60.3256C35.1785 60.2875 35.1821 60.2472 35.1756 60.2077C35.1691 60.1683 35.1526 60.1306 35.1274 60.0974C35.0956 60.0514 35.047 60.0163 34.9896 59.9977C34.9321 59.9791 34.8692 59.9781 34.811 59.9949L32.5779 60.8778L25.1781 63.7712C25.1404 63.7856 25.1076 63.8084 25.0831 63.8375C25.0587 63.8665 25.0434 63.9007 25.0388 63.9366C25.0278 63.9701 25.0278 64.0056 25.0388 64.0391C25.0515 64.0749 25.0734 64.1078 25.1028 64.135C25.1325 64.1597 25.1685 64.1778 25.2079 64.1876C25.2472 64.1974 25.2887 64.1986 25.3288 64.1912C25.4041 64.168 25.502 64.1251 25.5848 64.0953L26.6242 63.6886L28.5937 62.928L31.9264 61.6384L34.1859 60.7786L34.7997 60.5504L34.9617 60.4909L35.0182 60.4744L34.9654 60.5008L34.811 60.5636L34.201 60.8083L31.9641 61.6946L28.6427 63.0008L26.6769 63.7679L25.6376 64.1714C25.5434 64.2044 25.4719 64.2408 25.3627 64.2739C25.3069 64.2851 25.2488 64.2841 25.1936 64.2708C25.1384 64.2575 25.0878 64.2325 25.0463 64.1978C25.0071 64.1622 24.9775 64.1192 24.9597 64.0722C24.937 64.0253 24.9291 63.9738 24.9371 63.9233C24.9448 63.8729 24.9672 63.8251 25.0021 63.7845C25.0371 63.7439 25.0835 63.712 25.1367 63.6919L32.544 60.8216C33.4968 60.4578 34.2612 60.1602 34.8035 59.9618C34.8696 59.9452 34.9401 59.9481 35.0041 59.9702C35.0681 59.9924 35.122 60.0324 35.1575 60.0842C35.1839 60.1207 35.2004 60.162 35.2056 60.2051C35.2108 60.2481 35.2047 60.2916 35.1876 60.3322C35.1744 60.3655 35.1526 60.3957 35.1238 60.4204C35.0951 60.445 35.0602 60.4635 35.0219 60.4744Z" fill="#263238"/>
<path d="M34.3771 58.8961L24.5063 62.737C24.3618 62.7933 24.2965 62.9417 24.3606 63.0686L24.3743 63.0958C24.4384 63.2227 24.6074 63.28 24.7519 63.2238L34.6227 59.3828C34.7672 59.3266 34.8325 59.1781 34.7684 59.0512L34.7547 59.024C34.6906 58.8971 34.5216 58.8398 34.3771 58.8961Z" fill="#E0E0E0"/>
<path d="M34.6228 59.3758C34.6619 59.3587 34.6961 59.3341 34.7228 59.3038C34.7496 59.2735 34.7682 59.2382 34.7772 59.2007C34.7863 59.1632 34.7855 59.1244 34.7751 59.0871C34.7647 59.0499 34.7448 59.0152 34.717 58.9856C34.6831 58.9401 34.6323 58.9064 34.5733 58.8901C34.5142 58.8738 34.4505 58.876 34.3931 58.8964L32.0997 59.8024L24.5267 62.7785C24.488 62.7925 24.4544 62.8157 24.4298 62.8455C24.4052 62.8753 24.3905 62.9105 24.3874 62.9472C24.3747 62.9827 24.3747 63.0208 24.3874 63.0563C24.4023 63.091 24.4254 63.1225 24.4552 63.1489C24.4865 63.1732 24.5245 63.19 24.5654 63.1975C24.6064 63.2051 24.6488 63.2031 24.6887 63.1919C24.7715 63.1654 24.8656 63.1258 24.956 63.0894L26.0217 62.676L28.0327 61.8956L31.4445 60.5729L33.7492 59.69L34.3781 59.4552L34.5437 59.3957L34.6002 59.3758C34.6002 59.3758 34.5814 59.3758 34.5475 59.4023L34.3856 59.4717L33.7642 59.7197L31.4972 60.639L28.108 61.9618L26.0971 62.7488L25.0313 63.1621L24.7564 63.2679C24.7004 63.2844 24.6404 63.2872 24.5828 63.2761C24.5251 63.2651 24.4719 63.2405 24.4288 63.2051C24.3873 63.1711 24.3551 63.1293 24.3347 63.0828C24.3107 63.035 24.3016 62.9825 24.3083 62.9306C24.314 62.8793 24.3351 62.8302 24.3695 62.7883C24.4039 62.7465 24.4504 62.7134 24.5041 62.6926L32.0809 59.7528L34.3856 58.8732C34.4524 58.8487 34.527 58.8459 34.596 58.8653C34.665 58.8847 34.7239 58.925 34.7622 58.979C34.7898 59.0156 34.8078 59.0572 34.8149 59.1006C34.8221 59.1441 34.8182 59.1884 34.8036 59.2303C34.7904 59.2662 34.7667 59.2985 34.7351 59.324C34.7034 59.3495 34.6647 59.3674 34.6228 59.3758Z" fill="#263238"/>
<path d="M34.0518 57.768L23.7817 61.7644C23.6372 61.8206 23.5719 61.9691 23.636 62.096L23.6497 62.1232C23.7137 62.2501 23.8828 62.3074 24.0273 62.2511L34.2975 58.2547C34.442 58.1985 34.5072 58.0501 34.4432 57.9232L34.4295 57.8959C34.3654 57.7691 34.1964 57.7118 34.0518 57.768Z" fill="#E0E0E0"/>
<path d="M34.2989 58.2521C34.3351 58.2361 34.3671 58.2138 34.3931 58.1865C34.419 58.1592 34.4382 58.1275 34.4495 58.0933C34.4597 58.0517 34.4596 58.0085 34.4492 57.9669C34.4389 57.9252 34.4184 57.886 34.3892 57.8519C34.3485 57.8071 34.2911 57.7762 34.2271 57.7647C34.1631 57.7532 34.0965 57.7619 34.039 57.7891L31.6628 58.7282L23.796 61.8003C23.756 61.8158 23.7215 61.8406 23.6962 61.8721C23.671 61.9035 23.6561 61.9404 23.6529 61.9788C23.6523 62.0177 23.6614 62.0562 23.6796 62.0917C23.6978 62.1271 23.7247 62.1586 23.7584 62.1838C23.7929 62.207 23.8339 62.2214 23.8771 62.2255C23.9202 62.2296 23.9639 62.2232 24.0032 62.207L24.2856 62.0979L25.389 61.6713L27.479 60.8611L31.0151 59.4921L33.4064 58.5761L34.0578 58.3314L34.2273 58.2719L34.2876 58.2521L34.2311 58.2785L34.0654 58.348L33.4214 58.6092L31.0452 59.5483L27.5129 60.9306L25.4266 61.7473L24.3233 62.1772L24.0408 62.2864C23.9855 62.3079 23.9246 62.3162 23.8644 62.3104C23.8042 62.3046 23.7468 62.2849 23.6981 62.2533C23.6514 62.22 23.6151 62.1767 23.5927 62.1276C23.5713 62.0921 23.5585 62.0531 23.5551 62.013C23.5517 61.9729 23.5578 61.9327 23.573 61.8948C23.5883 61.8569 23.6122 61.8222 23.6435 61.7928C23.6747 61.7634 23.7126 61.7401 23.7546 61.7242L31.6251 58.6753L34.0127 57.7593C34.0762 57.7322 34.1485 57.7253 34.2171 57.7398C34.2858 57.7543 34.3466 57.7892 34.3892 57.8387C34.4198 57.8754 34.4407 57.9175 34.4504 57.9621C34.4602 58.0067 34.4586 58.0527 34.4457 58.0966C34.4267 58.1509 34.3867 58.1977 34.3327 58.2289C34.3227 58.2379 34.3113 58.2457 34.2989 58.2521Z" fill="#263238"/>
<path d="M20.4785 58.457C20.5237 58.5429 21.7589 60.494 22.3953 61.4992C22.5121 61.6814 22.6745 61.838 22.8701 61.9572C23.0658 62.0763 23.2898 62.1549 23.525 62.187L24.2217 62.2862L34.476 58.3181L34.8526 57.8088C34.9846 57.6333 35.0689 57.4334 35.0989 57.2247C35.1289 57.016 35.1039 56.804 35.0258 56.6052L33.7492 53.3281L20.4785 58.457Z" fill="#FFC727"/>
<g opacity="0.3">
<path d="M26.4551 65.0339C27.5489 64.8202 28.6105 64.495 29.6184 64.065C30.492 63.7343 31.3619 63.4036 32.3034 63.03C32.9925 62.7489 33.6176 62.4711 34.2992 62.1768C34.5782 62.071 34.8275 61.913 35.0298 61.7139L26.4551 65.0339Z" fill="black"/>
</g>
<g opacity="0.3">
<path d="M25.5625 64.1252C26.7317 63.8774 27.8678 63.5216 28.9517 63.0637C29.8969 62.6967 30.8346 62.3594 31.8476 61.9493C32.6008 61.6451 33.2673 61.3475 34.0017 61.0334C34.3022 60.9202 34.5728 60.7536 34.7962 60.5439L25.5625 64.1252Z" fill="black"/>
</g>
<g opacity="0.3">
<path d="M25.0425 63.0828C26.2126 62.8375 27.3489 62.4816 28.4317 62.0214C29.3731 61.6543 30.3146 61.3203 31.3276 60.907C32.0808 60.606 32.7473 60.3084 33.4816 59.9943C33.7806 59.8787 34.0506 59.7124 34.2762 59.5049L25.0425 63.0828Z" fill="black"/>
</g>
<g opacity="0.3">
<path d="M24.5229 62.0451C25.692 61.7968 26.828 61.441 27.9122 60.9836C28.8536 60.6166 29.7951 60.2793 30.8081 59.8693C31.5612 59.565 32.2278 59.2674 32.9621 58.9533C33.2626 58.8401 33.5332 58.6735 33.7567 58.4639L24.5229 62.0451Z" fill="black"/>
</g>
<path opacity="0.3" d="M20.4785 58.457C20.5237 58.5429 21.7589 60.494 22.3953 61.4992C22.5121 61.6814 22.6745 61.838 22.8701 61.9572C23.0658 62.0763 23.2898 62.1549 23.525 62.187L24.2217 62.2862L34.476 58.3181L34.8526 57.8088C34.9846 57.6333 35.0689 57.4334 35.0989 57.2247C35.1289 57.016 35.1039 56.804 35.0258 56.6052L33.7492 53.3281L20.4785 58.457Z" fill="black"/>
<path d="M34.9883 57.1508C34.9883 57.1706 32.2656 58.2453 28.8802 59.5515C25.4947 60.8577 22.7457 61.896 22.7344 61.8663C22.7231 61.8365 25.4571 60.7717 28.8425 59.4655C32.228 58.1593 34.977 57.1276 34.9883 57.1508Z" fill="#263238"/>
<path d="M33.6437 53.308C33.6437 53.3344 30.6951 54.5116 27.0234 55.9534C23.3518 57.3952 20.3692 58.5228 20.3579 58.4996C20.3466 58.4765 23.3066 57.2993 26.9782 55.8542C30.6499 54.4091 33.6324 53.2848 33.6437 53.308Z" fill="#263238"/>
<path d="M154.214 31.2082L149.51 30.7254C146.861 33.0897 143.3 34.4982 139.527 34.674C135.755 34.8497 132.044 33.7799 129.124 31.675C126.205 29.5701 124.287 26.5823 123.749 23.2989C123.211 20.0156 124.091 16.6742 126.216 13.9316C128.341 11.189 131.557 9.24368 135.233 8.47798C138.909 7.71228 142.778 8.18161 146.079 9.79372C149.381 11.4058 151.876 14.0441 153.075 17.1899C154.273 20.3356 154.089 23.7614 152.557 26.7936L154.214 31.2082Z" fill="white"/>
<path d="M154.214 31.2085C154.214 31.2085 154.172 31.1093 154.097 30.9175L153.769 30.071L152.519 26.8005H152.602C152.598 26.8042 152.593 26.8072 152.587 26.8092C152.582 26.8112 152.576 26.8122 152.57 26.8122C152.564 26.8122 152.558 26.8112 152.553 26.8092C152.547 26.8072 152.542 26.8042 152.538 26.8005C152.532 26.7933 152.529 26.7846 152.529 26.7757C152.529 26.7669 152.532 26.7582 152.538 26.7509C153.55 24.7255 153.971 22.5103 153.762 20.306C153.696 19.626 153.57 18.9516 153.385 18.2888C153.176 17.5824 152.908 16.8906 152.583 16.2188C151.289 13.5665 149.04 11.3605 146.18 9.93995C143.32 8.51938 140.008 7.96277 136.753 8.35567C133.497 8.74856 130.479 10.0692 128.162 12.1147C125.844 14.1602 124.356 16.8173 123.925 19.6777C123.629 21.7083 123.866 23.7715 124.618 25.7093C125.332 27.5302 126.499 29.1886 128.034 30.5637C130.753 33.0222 134.455 34.4558 138.356 34.5616H139C139.211 34.5711 139.422 34.5655 139.632 34.5451L140.864 34.4492C141.636 34.3399 142.4 34.1931 143.153 34.0094C145.553 33.3765 147.734 32.2273 149.499 30.6662C149.505 30.6633 149.511 30.6618 149.518 30.6618C149.524 30.6618 149.531 30.6633 149.537 30.6662L153.02 31.0465L153.924 31.149L154.236 31.1854L153.943 31.1622L153.046 31.0795L149.525 30.7489H149.563C147.792 32.3345 145.594 33.5015 143.172 34.1416C142.413 34.3314 141.643 34.4827 140.864 34.5947L139.621 34.6972C139.409 34.7187 139.195 34.7253 138.981 34.717H138.33C135.25 34.6435 132.269 33.7504 129.781 32.156C127.293 30.5616 125.415 28.3412 124.396 25.7887C123.631 23.8261 123.389 21.7354 123.688 19.6777C124.007 17.5191 124.925 15.4625 126.362 13.6891C126.529 13.4635 126.716 13.2491 126.919 13.0476L127.503 12.4259L128.147 11.8571C128.355 11.6647 128.578 11.4846 128.813 11.3181L129.51 10.8122C129.736 10.6402 130.003 10.5112 130.244 10.3591C130.485 10.207 130.738 10.0582 130.997 9.92925L131.781 9.55889C133.836 8.61533 136.112 8.10261 138.431 8.06091C140.531 8.02663 142.617 8.37374 144.557 9.08048C146.497 9.78723 148.25 10.8384 149.706 12.168C150.98 13.3318 152 14.69 152.719 16.1758C153.046 16.8545 153.315 17.5543 153.521 18.269C153.707 18.9393 153.833 19.6215 153.897 20.3093C154.088 22.5332 153.638 24.7635 152.587 26.7939L152.508 26.7509C152.517 26.7439 152.529 26.7401 152.542 26.7401C152.554 26.7401 152.566 26.7439 152.576 26.7509C152.577 26.7575 152.577 26.7642 152.576 26.7708C153.099 28.2158 153.506 29.3269 153.781 30.0776C153.912 30.4446 154.014 30.7389 154.082 30.9208C154.15 31.1027 154.214 31.2085 154.214 31.2085Z" fill="#263238"/>
<path d="M131.803 21.705L133.611 19.9491L137.444 22.6541L143.138 16.9102L145.002 18.504L137.358 25.8881L131.803 21.705Z" fill="#263238"/>
<path d="M112.775 32.3397L115.761 32.009C115.771 32.0057 115.782 32.0057 115.791 32.009C117.306 33.347 119.176 34.3324 121.233 34.876C121.879 35.0327 122.534 35.1585 123.195 35.2529L124.253 35.3356C124.434 35.3489 124.615 35.3489 124.795 35.3356H125.349C126.923 35.2938 128.476 34.9979 129.928 34.4626C130.305 34.3171 130.711 34.1551 131.092 33.9732L130.742 33.8509C128.884 33.171 127.201 32.1702 125.793 30.9078C124.27 29.5431 123.112 27.8971 122.404 26.0898C121.658 24.1715 121.42 22.129 121.707 20.1177C122.024 18.0009 122.93 15.985 124.344 14.2482C124.511 14.0283 124.694 13.8184 124.893 13.6199L125.466 13.0114L125.711 12.7932H125.289C123.511 12.7628 121.745 13.0546 120.101 13.6503C118.457 14.246 116.971 15.1328 115.735 16.2554C114.646 17.2342 113.771 18.3795 113.152 19.6349C112.872 20.2109 112.641 20.8045 112.462 21.4107C111.785 23.8332 112.041 26.3843 113.189 28.6658C113.194 28.6723 113.196 28.6797 113.196 28.6873C113.196 28.6948 113.194 28.7023 113.189 28.7088L112.124 31.4898C112.003 31.8205 111.909 32.0487 111.841 32.2173C111.773 32.386 111.743 32.4653 111.743 32.4653L112.011 32.4322L112.775 32.3397Z" fill="#F5F5F5"/>
<path d="M112.775 32.3393C112.775 32.3393 112.688 32.3558 112.515 32.3789L111.735 32.4781H111.698V32.4451C111.991 31.6713 112.474 30.3882 113.117 28.6786V28.6588L113.091 28.6059L113.038 28.4968L112.937 28.2752C112.865 28.1264 112.805 27.971 112.737 27.8122C112.613 27.4816 112.5 27.1509 112.398 26.8202C112.182 26.0721 112.056 25.3063 112.022 24.5352C111.978 23.6712 112.049 22.8057 112.232 21.9559C112.334 21.4995 112.467 21.0489 112.632 20.6067C112.795 20.1431 112.997 19.691 113.238 19.2543C114.265 17.3144 115.897 15.6701 117.945 14.5123C120.241 13.2147 122.943 12.5842 125.669 12.7101H125.884L125.733 12.8424L125.488 13.0606C123.686 14.831 122.453 16.9902 121.914 19.3171C121.246 22.3139 121.803 25.4218 123.487 28.0935C125.171 30.7653 127.875 32.8297 131.122 33.9232L131.306 33.9827L131.133 34.0555C130.476 34.3571 129.795 34.6168 129.096 34.8326C128.427 35.0287 127.742 35.1779 127.047 35.279C125.771 35.4539 124.472 35.4695 123.191 35.3253C122.754 35.2459 122.329 35.1831 121.914 35.1037C121.511 35.021 121.114 34.9183 120.724 34.7962C120.011 34.5769 119.32 34.3036 118.661 33.9794C117.605 33.4622 116.639 32.8153 115.791 32.0582C115.791 32.0284 115.705 32.0582 115.648 32.0582L115.471 32.0747L115.136 32.1111L114.526 32.1739L113.569 32.2698L112.986 32.326C112.85 32.326 112.782 32.326 112.782 32.326L112.982 32.2963L113.566 32.2235L114.518 32.1111L115.128 32.0416L115.464 32.002L115.641 31.9821H115.731C115.749 31.9781 115.769 31.9781 115.787 31.9821C115.8 31.9781 115.813 31.9781 115.825 31.9821H115.844C116.695 32.7251 117.661 33.3596 118.713 33.867C120.115 34.5472 121.647 34.9956 123.232 35.1897C123.849 35.25 124.469 35.2798 125.089 35.279C125.748 35.2743 126.405 35.2246 127.055 35.1302C127.741 35.0287 128.417 34.8794 129.077 34.6838C129.766 34.467 130.436 34.2084 131.084 33.91V34.0423C127.801 32.944 125.064 30.8637 123.355 28.1677C121.647 25.4717 121.077 22.3328 121.745 19.3039C122.287 16.9477 123.537 14.7615 125.364 12.9713L125.612 12.7531L125.676 12.8986C123.137 12.7749 120.613 13.318 118.427 14.4588C116.24 15.5996 114.49 17.2863 113.4 19.3039C113.162 19.731 112.96 20.1731 112.797 20.6266C112.632 21.0596 112.497 21.5014 112.394 21.9493C112.041 23.5438 112.087 25.1868 112.53 26.764C112.628 27.0947 112.737 27.4452 112.858 27.756C112.922 27.9115 112.982 28.0669 113.05 28.2157L113.151 28.4372L113.204 28.5431L113.227 28.596C113.238 28.6127 113.243 28.6325 113.239 28.6519C113.236 28.6713 113.225 28.689 113.208 28.7018V28.6819C112.541 30.3916 112.048 31.6779 111.735 32.4318L111.713 32.4087L112.496 32.326L112.775 32.3393Z" fill="#263238"/>
<path d="M239.324 8.90137H234.64C233.714 8.90137 232.964 9.56019 232.964 10.3729V32.8624C232.964 33.6751 233.714 34.334 234.64 34.334H239.324C240.25 34.334 241 33.6751 241 32.8624V10.3729C241 9.56019 240.25 8.90137 239.324 8.90137Z" fill="#8535B7"/>
<path d="M214.09 23.8711H209.518C208.561 23.8711 207.786 24.5521 207.786 25.3922V33.8973C207.786 34.7374 208.561 35.4184 209.518 35.4184H214.09C215.046 35.4184 215.822 34.7374 215.822 33.8973V25.3922C215.822 24.5521 215.046 23.8711 214.09 23.8711Z" fill="#8535B7"/>
<path d="M226.385 17.5908H222.054C221.031 17.5908 220.202 18.3192 220.202 19.2178V33.7875C220.202 34.6861 221.031 35.4145 222.054 35.4145H226.385C227.408 35.4145 228.238 34.6861 228.238 33.7875V19.2178C228.238 18.3192 227.408 17.5908 226.385 17.5908Z" fill="#8535B7"/>
<path d="M238.029 0.498047C237.975 0.579231 237.91 0.654683 237.837 0.722909L237.238 1.34128L234.978 3.62297L227.089 11.4237L227.003 11.513L226.89 11.4469L221.956 8.61955L222.167 8.59309L221.979 8.78819C217.916 12.9713 214.24 16.7609 211.551 19.532L211.48 19.6014L211.397 19.5452L207.477 16.9891L206.437 16.2814C206.309 16.2055 206.191 16.1179 206.083 16.0202C206.216 16.0839 206.341 16.1568 206.46 16.2384L207.552 16.8998L211.533 19.3865H211.382L221.738 8.58978L221.926 8.39469L222.02 8.29879L222.137 8.36823L227.063 11.2055L226.863 11.2286L234.828 3.49401L237.163 1.26192L237.799 0.673309C237.867 0.607056 237.945 0.548215 238.029 0.498047Z" fill="#263238"/>
<path d="M238.281 5.8686C238.192 5.33108 238.156 4.78791 238.172 4.24496C238.142 3.25292 238.123 1.85084 238.123 0.309871L238.307 0.448756L238.149 0.471905C236.379 0.726528 234.76 0.944777 233.611 1.08697C232.991 1.19194 232.361 1.24947 231.729 1.25892C232.335 1.0918 232.956 0.967938 233.585 0.88856C234.741 0.696765 236.338 0.448756 238.104 0.194132L238.266 0.170985L238.45 0.144531V0.309871C238.45 1.85084 238.45 3.23969 238.402 4.24496C238.418 4.78827 238.377 5.33174 238.281 5.8686Z" fill="#263238"/>
</svg>
