<svg width="24" height="24" viewBox="0 0 24 24" fill="none" xmlns="http://www.w3.org/2000/svg">
<path d="M10.1246 0.626067C10.6565 0.220819 11.3176 0 11.9991 0C12.6807 0 13.3418 0.220819 13.8737 0.626067L22.8737 7.4739C23.5851 8.0152 24 8.83531 24 9.70271V21.1467C24 21.9035 23.6839 22.6292 23.1213 23.1643C22.5587 23.6994 21.7956 24 21 24H15C14.659 24 14.332 23.8712 14.0909 23.6418C13.8497 23.4125 13.7143 23.1015 13.7143 22.7772V14.2174H10.2857V22.7772C10.2857 23.1015 10.1503 23.4125 9.90914 23.6418C9.66802 23.8712 9.34099 24 9 24H3C2.20435 24 1.44129 23.6994 0.87868 23.1643C0.31607 22.6292 0 21.9035 0 21.1467V9.70107C0 8.83531 0.414857 8.0152 1.12629 7.4739L10.1246 0.626067ZM12.2674 2.53531C12.1915 2.47763 12.0972 2.44621 12 2.44621C11.9028 2.44621 11.8085 2.47763 11.7326 2.53531L2.73257 9.38314C2.68215 9.42143 2.64147 9.47006 2.61357 9.52539C2.58567 9.58073 2.57126 9.64134 2.57143 9.70271V21.1467C2.57143 21.3717 2.76343 21.5543 3 21.5543H7.71429V12.9946C7.71429 12.6702 7.84974 12.3592 8.09086 12.1299C8.33198 11.9006 8.65901 11.7717 9 11.7717H15C15.341 11.7717 15.668 11.9006 15.9091 12.1299C16.1503 12.3592 16.2857 12.6702 16.2857 12.9946V21.5543H21C21.1137 21.5543 21.2227 21.5114 21.303 21.435C21.3834 21.3585 21.4286 21.2548 21.4286 21.1467V9.70107C21.4285 9.63998 21.414 9.57969 21.3861 9.52466C21.3582 9.46963 21.3176 9.42126 21.2674 9.38314L12.2674 2.53531Z" fill="#451E5D"/>
</svg>
