<svg width="74" height="15" viewBox="0 0 74 15" fill="none" xmlns="http://www.w3.org/2000/svg">
<path d="M12.9414 14V8.4043H3.72266V14H0.0996094V0.582031H3.72266V5.46484H12.9414V0.582031H16.5645V14H12.9414ZM34.6035 9.47852C34.6035 10.1491 34.4375 10.7806 34.1055 11.373C33.7734 11.9655 33.2754 12.4831 32.6113 12.9258C31.9473 13.3685 31.1172 13.7201 30.1211 13.9805C29.1315 14.2344 27.9727 14.3613 26.6445 14.3613C25.3164 14.3613 24.151 14.2344 23.1484 13.9805C22.1523 13.7201 21.3223 13.3685 20.6582 12.9258C19.9941 12.4831 19.4961 11.9655 19.1641 11.373C18.832 10.7806 18.666 10.1491 18.666 9.47852V0.582031H22.2793V8.17969C22.2793 8.62891 22.3346 9.05534 22.4453 9.45898C22.5625 9.85612 22.7773 10.2044 23.0898 10.5039C23.4089 10.8034 23.8516 11.041 24.418 11.2168C24.9909 11.3926 25.7331 11.4805 26.6445 11.4805C27.5495 11.4805 28.2852 11.3926 28.8516 11.2168C29.418 11.041 29.8574 10.8034 30.1699 10.5039C30.4889 10.2044 30.7038 9.85612 30.8145 9.45898C30.9251 9.05534 30.9805 8.62891 30.9805 8.17969V0.582031H34.6035V9.47852ZM53.7656 14V4.57617L48.7852 14H45.3086L40.3281 4.57617V14H36.7051V0.582031H41.627L47.0469 10.7383L52.4668 0.582031H57.3691V14H53.7656ZM59.5684 14V0.582031H73.1523V3.44336H63.2891V5.66016H72.6445V8.52148H63.2891V11.1387H73.2891V14H59.5684Z" fill="#451E5D"/>
</svg>
