<svg width="27" height="24" viewBox="0 0 27 24" fill="none" xmlns="http://www.w3.org/2000/svg">
<path d="M13.6 9.73945C12.7 8.35345 10.3 8.35345 9.4 9.73945C8.731 10.7702 6.4 12.275 5.8 12.5186C6.8002 13.8122 10.3 16.4 13.6 16.4C17.5 16.4 20.3002 13.8128 21.4 12.5186C20.8 12.275 19.5016 11.351 18.1 9.73945C16.9 8.36005 14.5 8.36005 13.6 9.73945Z" stroke="#451E5D" stroke-width="2" stroke-linecap="round" stroke-linejoin="round"/>
<path d="M5.8 12.55C8.074 12.9653 14.3776 13.5461 21.4 12.55" stroke="#451E5D" stroke-width="2" stroke-linecap="round" stroke-linejoin="round"/>
<path d="M25 12C25 18.0753 19.6276 23 13 23C6.3724 23 1 18.0753 1 12C1 5.9247 6.3724 1 13 1" stroke="#451E5D" stroke-width="2" stroke-linecap="round" stroke-linejoin="round"/>
<path d="M22 3.45972L22.2058 4.04052H22.8718L22.333 4.39912L22.5388 4.97992L22 4.62132L21.4612 4.97992L21.667 4.39912L21.1282 4.04052H21.7942L22 3.45972Z" stroke="#451E5D" stroke-width="2"/>
<path d="M19.6 11.2607C20.3764 11.9477 21.0244 12.3662 21.4 12.5186C20.6708 13.3678 19.815 14.119 18.8578 14.7499M8.2588 10.8999C7.333 11.6556 6.1936 12.3585 5.8 12.5186C6.3646 13.2495 7.7266 14.3924 9.4 15.2493" stroke="#451E5D" stroke-width="2" stroke-linecap="round" stroke-linejoin="round"/>
</svg>
