<svg width="23" height="23" viewBox="0 0 23 23" fill="none" xmlns="http://www.w3.org/2000/svg">
<path d="M11.5002 11.9795C10.6106 11.9795 9.75744 12.3329 9.12841 12.9619C8.49938 13.5909 8.146 14.4441 8.146 15.3337C8.146 16.2232 8.49938 17.0764 9.12841 17.7054C9.75744 18.3344 10.6106 18.6878 11.5002 18.6878C12.3897 18.6878 13.2429 18.3344 13.8719 17.7054C14.5009 17.0764 14.8543 16.2232 14.8543 15.3337C14.8543 14.4441 14.5009 13.5909 13.8719 12.9619C13.2429 12.3329 12.3897 11.9795 11.5002 11.9795ZM10.0627 15.3337C10.0627 14.9524 10.2141 14.5868 10.4837 14.3172C10.7533 14.0476 11.1189 13.8962 11.5002 13.8962C11.8814 13.8962 12.247 14.0476 12.5166 14.3172C12.7862 14.5868 12.9377 14.9524 12.9377 15.3337C12.9377 15.7149 12.7862 16.0805 12.5166 16.3501C12.247 16.6197 11.8814 16.7712 11.5002 16.7712C11.1189 16.7712 10.7533 16.6197 10.4837 16.3501C10.2141 16.0805 10.0627 15.7149 10.0627 15.3337Z" fill="white"/>
<path d="M16.7957 4.90313L13.7492 0.631836L2.54725 9.58075L1.92625 9.57404V9.58363H1.4375V21.0836H21.5625V9.58363H20.6406L18.8063 4.21792L16.7957 4.90313ZM18.6156 9.58363H9.00546L16.1632 7.14371L17.6218 6.677L18.6156 9.58363ZM14.9021 5.54904L7.51333 8.06754L13.3649 3.39279L14.9021 5.54904ZM3.35417 17.4123V13.2531C3.75848 13.1098 4.12573 12.8781 4.42912 12.5749C4.73252 12.2716 4.96442 11.9045 5.10792 11.5003H17.8921C18.0355 11.9047 18.2674 12.272 18.5708 12.5753C18.8742 12.8787 19.2415 13.1106 19.6458 13.254V17.4132C19.2415 17.5566 18.8742 17.7885 18.5708 18.0919C18.2674 18.3953 18.0355 18.7626 17.8921 19.167H5.10983C4.96626 18.7622 4.73413 18.3947 4.43039 18.0911C4.12665 17.7875 3.75897 17.5556 3.35417 17.4123Z" fill="white"/>
</svg>
