<svg width="17" height="19" viewBox="0 0 17 19" fill="none" xmlns="http://www.w3.org/2000/svg">
<path d="M3.5 6.09864C3.5 4.7464 4.02678 3.44954 4.96447 2.49336C5.90215 1.53718 7.17392 1 8.5 1C9.82608 1 11.0979 1.53718 12.0355 2.49336C12.9732 3.44954 13.5 4.7464 13.5 6.09864C13.5 12.0471 16 13.7466 16 13.7466H1C1 13.7466 3.5 12.0471 3.5 6.09864ZM7.08333 17.1457C7.22282 17.4044 7.42787 17.6202 7.67708 17.7704C7.92628 17.9207 8.21048 18 8.5 18C8.78952 18 9.07372 17.9207 9.32292 17.7704C9.57213 17.6202 9.77718 17.4044 9.91667 17.1457" fill="black"/>
<path d="M7.08333 17.1457C7.22282 17.4044 7.42787 17.6202 7.67708 17.7704C7.92628 17.9207 8.21048 18 8.5 18C8.78952 18 9.07372 17.9207 9.32292 17.7704C9.57213 17.6202 9.77718 17.4044 9.91667 17.1457M3.5 6.09864C3.5 4.7464 4.02678 3.44954 4.96447 2.49336C5.90215 1.53718 7.17392 1 8.5 1C9.82608 1 11.0979 1.53718 12.0355 2.49336C12.9732 3.44954 13.5 4.7464 13.5 6.09864C13.5 12.0471 16 13.7466 16 13.7466H1C1 13.7466 3.5 12.0471 3.5 6.09864Z" stroke="#451E5D" stroke-opacity="0.76" stroke-width="2" stroke-linecap="round" stroke-linejoin="round"/>
</svg>
