<svg width="24" height="24" viewBox="0 0 24 24" fill="none" xmlns="http://www.w3.org/2000/svg">
<path d="M17.371 19.827L20.211 17.031L19.585 16.404L17.371 18.587L16.415 17.612L15.788 18.244L17.371 19.827ZM6.77 8.73H17.232V7.73H6.769L6.77 8.73ZM18 22.115C16.886 22.115 15.9407 21.727 15.164 20.951C14.3873 20.175 13.9993 19.2297 14 18.115C14 17.0017 14.388 16.0567 15.164 15.28C15.94 14.5033 16.8853 14.115 18 14.115C19.114 14.115 20.0593 14.5033 20.836 15.28C21.6127 16.0567 22.0007 17.0017 22 18.115C22 19.2297 21.612 20.175 20.836 20.951C20.0587 21.727 19.1133 22.115 18 22.115ZM4 20.77V5.615C4 5.16833 4.15733 4.78733 4.472 4.472C4.78667 4.15733 5.16767 4 5.615 4H18.385C18.8317 4 19.2127 4.15733 19.528 4.472C19.8427 4.78667 20 5.16767 20 5.615V11.56C19.4053 11.3647 18.796 11.2643 18.172 11.259C17.5487 11.253 16.9337 11.3333 16.327 11.5H6.769V12.5H14.081C13.5797 12.8473 13.1377 13.255 12.755 13.723C12.3723 14.191 12.0573 14.7063 11.81 15.269H6.77V16.269H11.479C11.407 16.5383 11.351 16.81 11.311 17.084C11.271 17.358 11.2507 17.644 11.25 17.942C11.25 18.3987 11.2977 18.8517 11.393 19.301C11.489 19.7503 11.6323 20.1833 11.823 20.6L11.788 20.635L10.654 19.808L9.308 20.769L7.962 19.808L6.615 20.769L5.269 19.808L4 20.77Z" fill="white"/>
</svg>
