<svg width="28" height="30" viewBox="0 0 28 30" fill="none" xmlns="http://www.w3.org/2000/svg">
<path d="M2.8 15.1875C4.025 11.45 7.53083 8.75 11.6667 8.75C16.2832 8.75 20.1168 12.1137 20.867 16.5325C20.1028 16.1875 19.1112 15.9012 18.1078 15.7225C16.0837 15.3625 14.5378 16.1125 13.2137 16.76L13.2008 16.7663C11.8545 17.425 10.738 17.9712 9.26917 17.7937C8.099 17.6525 7.0455 17.2562 6.05617 16.7863C5.60817 16.5738 5.18233 16.3513 4.76117 16.13L4.62 16.0563C4.16878 15.8146 3.71002 15.5895 3.2445 15.3813L2.8 15.1875Z" fill="#451E5D"/>
<path d="M2.39517 17.035C2.35393 17.3946 2.33328 17.7565 2.33333 18.1187C2.33333 20.5125 3.227 22.6963 4.69933 24.3525C5.22433 24.9438 5.48683 25.2388 6.587 25.745C7.68833 26.25 8.44667 26.25 9.96567 26.25H13.3677C14.8867 26.25 15.645 26.25 16.7463 25.745C17.8465 25.2388 18.109 24.9438 18.6352 24.3525C19.9862 22.8313 20.8495 20.865 20.9825 18.7025L20.5753 18.46C20.0258 18.1325 18.9957 17.7812 17.8208 17.5725C16.3753 17.315 15.2728 17.8137 13.9405 18.4662L13.8122 18.5287C12.5358 19.1537 11.0285 19.8937 9.07317 19.6575C7.65567 19.4862 6.419 19.0088 5.34683 18.5C4.8685 18.2725 4.4135 18.035 3.9935 17.815L3.8535 17.7413C3.43861 17.5185 3.01681 17.3109 2.58883 17.1187L2.39517 17.035ZM14.6533 3.05C15.0663 3.49125 15.1468 4.15 15.1632 5.3125H16.7067C17.7479 5.31258 18.7748 5.57235 19.7062 6.07125L20.6815 6.59375C21.476 5.9075 22.7815 5.86 23.9167 6.5625C25.312 7.425 25.921 9.09375 25.2758 10.29C24.6318 11.485 22.9775 11.755 21.5833 10.8925C20.5987 10.2825 20.0048 9.27125 19.9687 8.30875L18.9233 7.74875C18.2351 7.3799 17.4762 7.18775 16.7067 7.1875H15.1667V8.105C14.038 7.70274 12.8561 7.49845 11.6667 7.5C10.4417 7.5 9.26333 7.7125 8.16667 8.105V7.1875H8.2915C8.40467 7.18875 8.5365 7.19 8.6485 7.1875C8.81067 7.18125 9.03 7.165 9.2505 7.0925C9.48617 7.01375 9.76033 6.8575 9.95983 6.54875C10.1535 6.25125 10.2083 5.9175 10.2083 5.625C10.2083 5.3325 10.1535 4.99875 9.95983 4.7C9.787 4.43836 9.53656 4.24715 9.24933 4.1575C9.05346 4.09765 8.851 4.06612 8.64733 4.06375C8.52913 4.06104 8.41089 4.06062 8.29267 4.0625H8.24833C8.31717 3.62 8.44433 3.3 8.67767 3.05C9.19333 2.5 10.017 2.5 11.6667 2.5C13.3163 2.5 14.1412 2.5 14.6533 3.05Z" fill="#451E5D"/>
</svg>
