<svg width="35" height="31" viewBox="0 0 35 31" fill="none" xmlns="http://www.w3.org/2000/svg">
<g clip-path="url(#clip0_1_1337)">
<path fill-rule="evenodd" clip-rule="evenodd" d="M24.1384 28.5882C22.0384 28.5197 16.0869 27.7912 9.854 22.2719C3.62254 16.7513 2.8015 11.4813 2.72275 9.62003C2.60608 6.78353 5.059 4.02841 7.89254 2.95245C8.23376 2.82195 8.60742 2.77226 8.97686 2.80827C9.34629 2.84427 9.69882 2.96473 9.99983 3.15782C12.3332 4.66391 13.9432 6.94241 15.3257 8.73395C15.6298 9.12756 15.7599 9.60653 15.6911 10.0796C15.6222 10.5527 15.3593 10.9868 14.9523 11.2992L12.1071 13.1708C11.9697 13.2587 11.8729 13.3879 11.8348 13.5342C11.7967 13.6805 11.8199 13.8341 11.9 13.9665C12.5446 15.0037 13.6909 16.5485 15.0034 17.711C16.3173 18.8735 18.1432 19.9559 19.3959 20.5914C19.5529 20.6695 19.7378 20.6914 19.9125 20.6525C20.0872 20.6135 20.2384 20.5168 20.335 20.3822L22.1871 17.8854C22.5276 17.4848 23.0299 17.2164 23.5888 17.1365C24.1477 17.0565 24.7199 17.1712 25.1855 17.4566C27.2373 18.7147 29.6319 20.1161 31.3848 22.104C31.6205 22.3725 31.7705 22.6922 31.819 23.0296C31.8674 23.3671 31.8127 23.7098 31.6605 24.0221C30.4398 26.5447 27.3511 28.6928 24.1384 28.5882Z" fill="#451E5D"/>
</g>
<defs>
<clipPath id="clip0_1_1337">
<rect width="35" height="31" fill="white"/>
</clipPath>
</defs>
</svg>
