<svg width="14" height="14" viewBox="0 0 14 14" fill="none" xmlns="http://www.w3.org/2000/svg">
<path d="M7 0C3.13476 0 0 3.13306 0 7C0 10.8669 3.13476 14 7 14C10.8664 14 14 10.8669 14 7C14 3.13306 10.8669 0 7 0ZM7 1.70275C8.05003 1.70275 9.02741 2.01378 9.85154 2.54277L2.54277 9.85154C1.99428 9.00163 1.70261 8.01153 1.70275 7C1.70275 4.07922 4.07922 1.70275 7 1.70275ZM7 12.2973C5.98851 12.2971 4.99848 12.0055 4.14846 11.4572L11.4567 4.14846C12.0052 4.99838 12.2968 5.98847 12.2967 7C12.2967 9.92078 9.92078 12.2973 7 12.2973Z" fill="#FF0C0C"/>
</svg>
