<svg width="16" height="11" viewBox="0 0 16 11" fill="none" xmlns="http://www.w3.org/2000/svg">
<path d="M15.769 11H8.0567C8.02686 11 7.99731 10.9961 7.96974 10.9886C7.94218 10.9811 7.91715 10.9701 7.89608 10.9562C7.875 10.9423 7.85831 10.9258 7.84696 10.9077C7.8356 10.8896 7.8298 10.8702 7.82989 10.8506V10.8432L8.28351 4.90865C8.28689 4.87075 8.31218 4.83512 8.3542 4.80905C8.39623 4.78298 8.45182 4.76843 8.50963 4.76838H15.3154C15.4361 4.76838 15.5345 4.83026 15.5415 4.90819L15.993 10.8139C15.9972 10.8249 16 10.8377 16 10.851C16 10.8904 15.9762 10.9286 15.9338 10.9565C15.8914 10.9844 15.8339 11 15.7739 11H15.7732H15.769ZM9.41967 6.01342C9.42106 6.22795 9.63531 6.40903 9.93052 6.47091L9.9354 6.47183C10.1734 7.22866 10.992 7.78884 11.9648 7.78884C12.9377 7.78884 13.7549 7.2282 13.9915 6.47412C14.1498 6.4434 14.2878 6.37865 14.3834 6.29026C14.479 6.20188 14.5267 6.09497 14.5188 5.98666C14.5109 5.87836 14.4478 5.77494 14.3398 5.69298C14.2317 5.61102 14.0849 5.55526 13.9228 5.53464C13.7608 5.51402 13.5929 5.52973 13.446 5.57926C13.2992 5.62879 13.1819 5.70926 13.113 5.80779C13.0441 5.90631 13.0275 6.01718 13.066 6.12263C13.1044 6.22807 13.1956 6.32198 13.325 6.38931L13.3264 6.39023C13.1533 6.93941 12.6083 7.34235 11.9621 7.34235C11.3158 7.34235 10.7736 6.9417 10.5991 6.39482C10.6976 6.34471 10.7751 6.27896 10.8243 6.20375C10.8734 6.12854 10.8926 6.04635 10.8801 5.96492C10.8675 5.88349 10.8236 5.80549 10.7525 5.73828C10.6814 5.67107 10.5854 5.61685 10.4736 5.58074C10.3618 5.54462 10.2378 5.52779 10.1134 5.53183C9.98893 5.53588 9.86809 5.56066 9.76225 5.60385C9.6564 5.64704 9.56903 5.70721 9.50837 5.7787C9.4477 5.8502 9.41574 5.93065 9.41548 6.0125V6.01388L9.41967 6.01342ZM0.226462 10.4146C0.195648 10.4146 0.165167 10.4104 0.136879 10.4024C0.108591 10.3944 0.0830894 10.3826 0.06193 10.3679C0.0407706 10.3532 0.0243974 10.3358 0.0138096 10.3168C0.00322184 10.2978 -0.00135848 10.2776 0.000348164 10.2574L0.631234 2.00875C0.634613 1.97085 0.659898 1.93522 0.701923 1.90915C0.743949 1.88308 0.799542 1.86853 0.857348 1.86848H2.39548C2.87772 0.768295 4.16461 0 5.66087 0C7.15713 0 8.44263 0.768753 8.92487 1.86756H10.3171C10.4372 1.86756 10.5363 1.92945 10.5426 2.00738L10.7247 4.39569H8.50963C8.08532 4.39569 7.73917 4.61435 7.71753 4.8894V4.89077L7.29531 10.4151L0.226462 10.4146ZM7.64007 2.60239C7.45856 2.68011 7.32008 2.79423 7.24523 2.92779C7.17038 3.06135 7.16315 3.20721 7.22462 3.34368C7.28609 3.48016 7.41297 3.59995 7.5864 3.68526C7.75983 3.77057 7.97054 3.81684 8.18721 3.81718C8.42262 3.81785 8.65092 3.76422 8.83229 3.66564C9.01366 3.56705 9.13658 3.42977 9.17962 3.27774C9.22265 3.12571 9.18306 2.96858 9.06776 2.83377C8.95246 2.69895 8.76876 2.595 8.54871 2.54005L8.54173 2.53867C8.37703 1.32022 7.14806 0.370853 5.66157 0.370853C4.17508 0.370853 2.94122 1.32205 2.77862 2.5428C2.56833 2.59683 2.39187 2.69581 2.2777 2.82378C2.16352 2.95175 2.11829 3.10125 2.14929 3.24817C2.18029 3.39508 2.28571 3.53087 2.44856 3.63361C2.61142 3.73636 2.8222 3.80009 3.04694 3.81452C3.27168 3.82896 3.49726 3.79325 3.68733 3.71317C3.87739 3.63308 4.02086 3.51329 4.09459 3.37309C4.16832 3.2329 4.16803 3.08048 4.09375 2.94041C4.01947 2.80034 3.87554 2.68078 3.68517 2.60102L3.68098 2.59964C3.79822 1.68191 4.64127 0.967703 5.66157 0.967703C6.68187 0.967703 7.52701 1.6842 7.64216 2.60377L7.64007 2.60239ZM4.57706 1.86664H6.7405C6.64852 1.72402 6.50045 1.60003 6.31146 1.50739C6.12248 1.41476 5.89939 1.3568 5.66506 1.33947L5.65878 1.33901C5.17026 1.37431 4.76549 1.57968 4.58055 1.8616L4.57706 1.86664ZM13.5093 6.00058C13.5066 5.97658 13.5115 5.95248 13.5237 5.92978C13.5358 5.90709 13.555 5.88628 13.5799 5.86866C13.6049 5.85104 13.6351 5.83699 13.6687 5.82738C13.7023 5.81777 13.7385 5.81281 13.7752 5.81281C13.8118 5.81281 13.848 5.81777 13.8816 5.82738C13.9152 5.83699 13.9454 5.85104 13.9704 5.86866C13.9953 5.88628 14.0145 5.90709 14.0266 5.92978C14.0388 5.95248 14.0437 5.97658 14.041 6.00058C14.0351 6.04417 14.0046 6.08473 13.9555 6.11427C13.9063 6.14381 13.8421 6.16019 13.7755 6.16019C13.7089 6.16019 13.6447 6.14381 13.5955 6.11427C13.5464 6.08473 13.5152 6.04417 13.5093 6.00058ZM9.86352 6.00058C9.86352 5.96595 9.87916 5.93209 9.90845 5.9033C9.93774 5.8745 9.97938 5.85205 10.0281 5.8388C10.0768 5.82555 10.1304 5.82208 10.1821 5.82884C10.2338 5.83559 10.2813 5.85227 10.3186 5.87676C10.3559 5.90125 10.3813 5.93245 10.3916 5.96642C10.4019 6.00039 10.3966 6.0356 10.3764 6.0676C10.3562 6.09959 10.3221 6.12694 10.2782 6.14618C10.2344 6.16543 10.1828 6.1757 10.1301 6.1757C10.0599 6.17521 9.9928 6.15655 9.94341 6.12376C9.89401 6.09097 9.86631 6.04671 9.86631 6.00058H9.86352ZM7.78662 3.1832C7.78662 3.1142 7.82835 3.04803 7.90262 2.99925C7.9769 2.95046 8.07763 2.92305 8.18267 2.92305C8.28771 2.92305 8.38845 2.95046 8.46272 2.99925C8.53699 3.04803 8.57872 3.1142 8.57872 3.1832C8.57872 3.25219 8.53699 3.31836 8.46272 3.36715C8.38845 3.41594 8.28771 3.44334 8.18267 3.44334C8.07763 3.44334 7.9769 3.41594 7.90262 3.36715C7.82835 3.31836 7.78662 3.25219 7.78662 3.1832ZM2.74233 3.1832C2.73836 3.14738 2.74568 3.11141 2.76382 3.07754C2.78197 3.04367 2.81055 3.01261 2.84777 2.98631C2.885 2.96002 2.93008 2.93904 2.9802 2.9247C3.03032 2.91036 3.08441 2.90296 3.13907 2.90296C3.19374 2.90296 3.24782 2.91036 3.29794 2.9247C3.34806 2.93904 3.39315 2.96002 3.43037 2.98631C3.4676 3.01261 3.49618 3.04367 3.51432 3.07754C3.53247 3.11141 3.53978 3.14738 3.53582 3.1832C3.52747 3.24848 3.48209 3.30932 3.40868 3.35367C3.33526 3.39801 3.23916 3.42262 3.13942 3.42262C3.03969 3.42262 2.94359 3.39801 2.87017 3.35367C2.79675 3.30932 2.75068 3.24848 2.74233 3.1832Z" fill="#8535B7"/>
</svg>
