<svg width="34" height="30" viewBox="0 0 34 30" fill="none" xmlns="http://www.w3.org/2000/svg">
<path d="M6.54651 5.64375C6.80434 4.73375 6.93326 4.28 7.31718 4.015C7.70251 3.75 8.23376 3.75 9.29626 3.75H24.7039C25.7664 3.75 26.2977 3.75 26.683 4.015C27.0655 4.28 27.1958 4.73375 27.4537 5.64375L29.1579 11.6613C29.2953 12.1463 29.3648 12.3875 29.3492 12.585C29.3298 12.8341 29.2263 13.0723 29.0521 13.269C28.8779 13.4658 28.6409 13.6119 28.3717 13.6888C28.1592 13.75 27.8702 13.75 27.2908 13.75C26.5357 13.75 26.1574 13.75 25.8415 13.685C25.4035 13.595 24.9961 13.4143 24.6529 13.1578C24.3098 12.9013 24.0408 12.5764 23.8681 12.21C23.742 11.945 23.6811 11.6225 23.5607 10.9812C23.5267 10.8012 23.5097 10.7113 23.4898 10.6875C23.4767 10.6715 23.4595 10.6585 23.4395 10.6495C23.4196 10.6405 23.3975 10.6358 23.3751 10.6358C23.3527 10.6358 23.3306 10.6405 23.3107 10.6495C23.2907 10.6585 23.2735 10.6715 23.2603 10.6875C23.2405 10.7113 23.2235 10.8 23.1895 10.9812L23.0748 11.5925C22.9827 12.181 22.6561 12.7214 22.1535 13.1167C21.6509 13.5121 21.0052 13.7366 20.3321 13.75H20.0431C19.37 13.7366 18.7242 13.5121 18.2217 13.1167C17.7191 12.7214 17.3925 12.181 17.3004 11.5925L17.1857 10.98C17.1517 10.8013 17.1347 10.7113 17.1148 10.6875C17.1017 10.6715 17.0845 10.6585 17.0645 10.6495C17.0446 10.6405 17.0225 10.6358 17.0001 10.6358C16.9777 10.6358 16.9556 10.6405 16.9357 10.6495C16.9157 10.6585 16.8985 10.6715 16.8853 10.6875C16.8655 10.7113 16.8485 10.8 16.8145 10.9812L16.6998 11.5925C16.6077 12.181 16.2811 12.7214 15.7785 13.1167C15.2759 13.5121 14.6302 13.7366 13.9571 13.75H13.6681C13.02 13.7366 12.3967 13.5275 11.9022 13.1576C11.4078 12.7878 11.072 12.2794 10.9509 11.7175C10.9407 11.6761 10.9322 11.6344 10.9254 11.5925L10.8107 10.98C10.7767 10.8013 10.7597 10.7113 10.7398 10.6875C10.7267 10.6715 10.7095 10.6585 10.6895 10.6495C10.6696 10.6405 10.6475 10.6358 10.6251 10.6358C10.6027 10.6358 10.5806 10.6405 10.5607 10.6495C10.5407 10.6585 10.5235 10.6715 10.5103 10.6875C10.4905 10.7113 10.4735 10.8 10.4395 10.9812C10.3191 11.6237 10.2582 11.9437 10.1321 12.21C9.95957 12.5763 9.69076 12.901 9.34786 13.1575C9.00497 13.414 8.59783 13.5948 8.16009 13.685C7.84276 13.75 7.46593 13.75 6.70943 13.75C6.13001 13.75 5.84101 13.75 5.62851 13.6888C5.35929 13.6119 5.1223 13.4658 4.94808 13.269C4.77386 13.0723 4.67039 12.8341 4.65101 12.585C4.63684 12.3875 4.70484 12.1463 4.84226 11.6613L6.54651 5.64375Z" fill="black"/>
<path fill-rule="evenodd" clip-rule="evenodd" d="M7.10734 15.6247C7.08325 16.151 7.08325 16.7685 7.08325 17.4997V24.9997C7.08325 26.1785 7.08325 26.7672 7.49834 27.1335C7.91342 27.4997 8.58067 27.4997 9.91659 27.4997H14.1666V22.4997C14.1666 22.1682 14.3158 21.8503 14.5815 21.6158C14.8472 21.3814 15.2075 21.2497 15.5833 21.2497H18.4166C18.7923 21.2497 19.1526 21.3814 19.4183 21.6158C19.684 21.8503 19.8333 22.1682 19.8333 22.4997V27.4997H24.0833C25.4192 27.4997 26.0864 27.4997 26.5015 27.1335C26.9166 26.7672 26.9166 26.1785 26.9166 24.9997V17.4997C26.9166 16.7685 26.9166 16.151 26.8925 15.6247C26.3754 15.6247 25.847 15.611 25.3583 15.511C24.633 15.3619 23.9551 15.0705 23.3749 14.6585C22.5476 15.246 21.5049 15.601 20.3815 15.6235L20.203 15.6247H19.9933C18.9019 15.6024 17.8494 15.2623 16.9999 14.6572C16.1726 15.2447 15.1299 15.5997 14.0065 15.6222L13.828 15.6235H13.6183C12.5271 15.6015 11.4746 15.2618 10.6249 14.6572C10.0526 15.0635 9.37825 15.3572 8.64159 15.5097C8.15284 15.6097 7.62442 15.6222 7.10734 15.6235" fill="black"/>
</svg>
